<?xml version="1.0" encoding="UTF-8" standalone="no"?>
<!DOCTYPE svg PUBLIC "-//W3C//DTD SVG 1.1//EN" "http://www.w3.org/Graphics/SVG/1.1/DTD/svg11.dtd">
<svg xmlns="http://www.w3.org/2000/svg" xmlns:xlink="http://www.w3.org/1999/xlink" version="1.1" width="463pt" height="188pt" viewBox="0 0 463 188">
<g enable-background="new">
<clipPath id="cp0">
<path transform="matrix(1,0,0,-1,0,188)" d="M 0 .1454541 L 462.9818 .1454541 L 462.9818 187.99996 L 0 187.99996 Z "/>
</clipPath>
<g clip-path="url(#cp0)">
<path transform="matrix(1,0,0,-1,0,188)" d="M 0 188 L 462.9818 188 L 462.9818 .1454541 L 0 .1454541 Z " fill="#ffffff"/>
</g>
<path transform="matrix(1,0,0,-1,0,188)" d="M 1.018187 182.3433 C 1.018187 184.885 3.078624 186.9454 5.620302 186.9454 L 457.4343 186.9454 C 459.9759 186.9454 462.0364 184.885 462.0364 182.3433 L 462.0364 94.4567 C 462.0364 91.91502 459.9759 89.85457 457.4343 89.85457 L 5.620302 89.85457 C 3.078624 89.85457 1.018187 91.91502 1.018187 94.4567 Z " fill="#f2f2f2" fill-opacity=".7961" fill-rule="evenodd"/>
<path transform="matrix(.00007874016,0,0,.00007874016,1.018187,1.054596)" stroke-width="12700" stroke-linecap="butt" stroke-miterlimit="8" stroke-linejoin="miter" fill="none" stroke="#d9d9d9" d="M 0 58447.01 C 0 26167.62 26167.55 0 58446.86 0 L 5796484 0 C 5828763 0 5854931 26167.62 5854931 58447.01 L 5854931 1174607 C 5854931 1206886 5828763 1233054 5796484 1233054 L 58446.86 1233054 C 26167.55 1233054 0 1206886 0 1174607 Z "/>
<symbol id="font_1_f">
<path d="M 0 .47400005 C .022666669 .47400008 .043 .4836667 .061000006 .503 C .07966667 .5223333 .08900001 .5496667 .089 .58500006 L .089 .7630001 C .08900001 .7863334 .09200001 .80600008 .098000008 .822 C .104 .83800008 .111999999 .85066679 .122 .8600001 C .13200002 .87000009 .14333335 .87700006 .15600002 .88100007 C .16933334 .88566669 .18300002 .8880001 .19700001 .8880001 L .261 .8880001 L .261 .82800009 L .20500002 .82800009 C .19300002 .82800009 .18333335 .8253334 .17600002 .82000008 C .16933334 .81533339 .16433335 .809 .16100002 .80100008 C .15833335 .79300007 .15666668 .7840001 .15600002 .77400007 C .15533336 .7640001 .15500002 .75433346 .15500002 .74500009 L .15500002 .573 C .15500002 .549 .15133335 .5286667 .14400001 .512 C .13733335 .49600006 .12900003 .48300005 .11900001 .473 C .109666679 .46366669 .1 .45666669 .09 .45200003 C .080000009 .44800005 .072000008 .4456667 .066 .445 L .066 .44300003 C .072000008 .44233338 .080000009 .43966667 .09 .435 C .1 .431 .109666679 .42400003 .11900001 .41400004 C .12900003 .4046667 .13733335 .39166669 .14400001 .375 C .15133335 .359 .15500002 .339 .15500002 .315 L .15500002 .143 C .15500002 .13366668 .15533336 .124000009 .15600002 .114 C .15666668 .104 .15833335 .095 .16100002 .087 C .16433335 .079 .16933334 .07266667 .17600002 .067999999 C .18333335 .06266666 .19300002 .060000004 .20500002 .060000004 L .261 .060000004 L .261 0 L .19700001 0 C .18300002 0 .16933334 .002333333 .15600002 .0069999995 C .14333335 .010999997 .13200002 .017999998 .122 .027999998 C .111999999 .03733333 .104 .049999998 .098000008 .066 C .09200001 .082 .08900001 .10166667 .089 .125 L .089 .303 C .08900001 .33833335 .07966667 .36566667 .061000006 .38500003 C .043 .40433336 .022666669 .41400004 0 .41400004 L 0 .47400005 Z "/>
</symbol>
<use xlink:href="#font_1_f" transform="matrix(13.963635,0,0,-13.963635,16.367554,28.141966)" fill="#181717"/>
<symbol id="font_1_25">
<path d="M 0 .23499999 L .06000001 .23499999 L .06000001 0 L 0 0 L 0 .23499999 Z "/>
</symbol>
<symbol id="font_1_1c">
<path d="M .0050000029 .36400003 C .0050000029 .38133336 .0043333347 .3986667 .0029999987 .416 C .0023333356 .43333338 .001333336 .4506667 0 .46800003 L .07100001 .46800003 L .07100001 .397 L .073 .397 C .08900001 .42433334 .111 .44500003 .13900002 .45900003 C .16766668 .47300003 .19600003 .48000003 .224 .48000003 C .23666668 .48000003 .25 .4786667 .26400004 .476 C .2786667 .47333337 .29266668 .46833337 .30600003 .46100004 C .31933335 .4543334 .33166669 .4446667 .34300003 .432 C .35500003 .41933335 .365 .40300004 .37300004 .38300003 C .38633336 .41300003 .40733335 .4366667 .43600003 .45400004 C .46533338 .47133336 .49566675 .48000003 .52700009 .48000003 C .587 .48000003 .63133338 .46400003 .6600001 .432 C .68866679 .40066669 .70300009 .35566668 .70300009 .29700003 L .70300009 0 L .6370001 0 L .6370001 .273 C .6370001 .32033334 .6286667 .35666669 .612 .38200004 C .59533336 .40733338 .5643334 .42 .51900008 .42000003 C .49433337 .42 .4736667 .41500006 .45700006 .40500004 C .44033338 .3956667 .42666666 .38300003 .416 .367 C .40600003 .35100005 .3986667 .33266668 .39400003 .312 C .38933338 .29200004 .387 .271 .38700003 .24900002 L .38700003 0 L .321 0 L .321 .273 C .321 .32033334 .31266669 .35666669 .296 .38200004 C .27933336 .40733338 .24833335 .42 .20300001 .42000003 C .199 .42 .18966668 .4186667 .17500001 .416 C .16100002 .41333334 .14633335 .40600003 .13100001 .39400003 C .11566668 .382 .10166667 .364 .089 .34 C .07700001 .316 .07100001 .28266669 .07100001 .24000001 L .07100001 0 L .0050000029 0 L .0050000029 .36400003 Z "/>
</symbol>
<symbol id="font_1_1e">
<path d="M .425 .246 C .42500005 .27199999 .4206667 .29633335 .412 .319 C .404 .3416667 .39233337 .36133338 .377 .37800003 C .36166669 .39466668 .34300003 .40766669 .321 .41700004 C .29966668 .42700003 .27533335 .432 .24800001 .432 C .22066669 .432 .19600003 .42700003 .17400003 .41700004 C .15266669 .40766669 .13433336 .39466668 .11900002 .37800003 C .10433335 .36133338 .092666689 .3416667 .08400001 .319 C .07600001 .29633335 .07200001 .27199999 .07200001 .246 C .07200001 .22000002 .07600001 .19566667 .08400001 .17300001 C .092666689 .15033333 .10433335 .13066668 .11900002 .11400001 C .13433336 .09733334 .15266669 .084000017 .17400003 .074 C .19600003 .064666669 .22066669 .060000004 .24800001 .060000004 C .27533335 .060000004 .29966668 .064666669 .321 .074 C .34300003 .084000017 .36166669 .09733334 .377 .11400001 C .39233337 .13066668 .404 .15033333 .412 .17300001 C .4206667 .19566667 .42500005 .22000002 .425 .246 M .497 .246 C .497 .21066667 .49066667 .17800002 .47800002 .148 C .466 .11800001 .449 .09200001 .42700003 .07 C .405 .047999998 .37866668 .030666667 .34800003 .018 C .318 .0059999998 .2846667 0 .24800001 0 C .21200001 0 .1786667 .0059999998 .14800002 .018 C .11800001 .030666667 .09200001 .047999998 .07000001 .07 C .048000009 .09200001 .03066667 .11800001 .018000003 .148 C .0060000035 .17800002 .0000000037252905 .21066667 .0000000037252905 .246 C .0000000037252905 .28133334 .0060000035 .314 .018000003 .344 C .03066667 .37399999 .048000009 .4 .07000001 .42200003 C .09200001 .444 .11800001 .461 .14800002 .47300003 C .1786667 .48566667 .21200001 .492 .24800001 .492 C .2846667 .492 .318 .48566667 .34800003 .47300003 C .37866668 .461 .405 .444 .42700003 .42200003 C .449 .4 .466 .37399999 .47800002 .344 C .49066667 .314 .497 .28133334 .497 .246 Z "/>
</symbol>
<symbol id="font_1_14">
<path d="M .072 .246 C .072 .22000002 .076 .19566667 .08400001 .17300001 C .09266666 .15033333 .10466667 .13066668 .120000008 .11400001 C .13533335 .09733334 .15366668 .084000017 .175 .074 C .19700001 .064666669 .22166668 .060000004 .249 .060000004 C .27566669 .060000004 .30033336 .064666669 .323 .074 C .34633336 .084000017 .36633338 .09733334 .38300003 .11400001 C .3996667 .13066668 .41266669 .15033333 .42200003 .17300001 C .43133334 .19566667 .43600003 .22000002 .43600003 .246 C .43600003 .27199999 .43133334 .29633335 .42200003 .319 C .41266669 .3416667 .3996667 .36133338 .38300003 .37800003 C .36633338 .39466668 .34633336 .40766669 .323 .41700004 C .30033336 .42700003 .27566669 .432 .249 .432 C .22166668 .432 .19700001 .42700003 .175 .41700004 C .15366668 .40766669 .13533335 .39466668 .120000008 .37800003 C .10466667 .36133338 .09266666 .3416667 .08400001 .319 C .076 .29633335 .072 .27199999 .072 .246 M .49900005 .012 L .43300004 .012 L .43300004 .09 L .43100003 .09 C .42033337 .074 .40766669 .06033333 .39300005 .049000004 C .37833337 .037666669 .36300005 .028333337 .34700004 .021000002 C .331 .013666667 .31433336 .008333333 .29700003 .005 C .28033338 .0016666666 .26433335 0 .249 0 C .21233334 0 .17866667 .0059999998 .148 .018 C .118 .030666667 .09200001 .047999998 .07000001 .07 C .048000009 .09200001 .03066667 .11800001 .018 .148 C .0059999998 .17800002 0 .21066667 0 .246 C 0 .28133334 .0059999998 .314 .018 .344 C .03066667 .37399999 .048000009 .4 .07000001 .42200003 C .09200001 .444 .118 .461 .148 .47300003 C .17866667 .48566667 .21233334 .492 .249 .492 C .26433335 .492 .28033338 .49033336 .29700003 .48700003 C .31433336 .4836667 .331 .47833336 .34700004 .47100003 C .36300005 .46366669 .37833337 .45433335 .39300005 .44300003 C .40766669 .4316667 .42033337 .418 .43100003 .402 L .43300004 .402 L .43300004 .76800009 L .49900005 .76800009 L .49900005 .012 Z "/>
</symbol>
<symbol id="font_1_d">
<path d="M .42700003 .246 C .42700003 .27199999 .4226667 .29633335 .41400004 .319 C .40600006 .3416667 .39433337 .36133338 .37900005 .37800003 C .36366669 .39466668 .34500004 .40766669 .323 .41700004 C .30166669 .42700003 .27733336 .432 .25000004 .432 C .2226667 .432 .19766669 .42700003 .17500001 .41700004 C .15233334 .40766669 .13266666 .39466668 .116000007 .37800003 C .09933334 .36133338 .086333338 .3416667 .077 .319 C .06766667 .29633335 .063 .27199999 .063 .246 C .063 .22000002 .06766667 .19566667 .077 .17300001 C .086333338 .15033333 .09933334 .13066668 .116000007 .11400001 C .13266666 .09733334 .15233334 .084000017 .17500001 .074 C .19766669 .064666669 .2226667 .060000004 .25000004 .060000004 C .27733336 .060000004 .30166669 .064666669 .323 .074 C .34500004 .084000017 .36366669 .09733334 .37900005 .11400001 C .39433337 .13066668 .40600006 .15033333 .41400004 .17300001 C .4226667 .19566667 .42700003 .22000002 .42700003 .246 M 0 .76800009 L .06600001 .76800009 L .06600001 .402 L .067999999 .402 C .078666668 .418 .09133333 .4316667 .106 .44300003 C .12066666 .45433335 .13599999 .46366669 .15200001 .47100003 C .168 .47833336 .18433333 .4836667 .201 .48700003 C .21833337 .49033336 .2346667 .492 .25000004 .492 C .28666667 .492 .32000003 .48566667 .35000003 .47300003 C .3806667 .461 .40700004 .444 .42900006 .42200003 C .45100007 .4 .46800006 .37399999 .48000006 .344 C .49266673 .314 .49900005 .28133334 .49900005 .246 C .49900005 .21066667 .49266673 .17800002 .48000006 .148 C .46800006 .11800001 .45100007 .09200001 .42900006 .07 C .40700004 .047999998 .3806667 .030666667 .35000003 .018 C .32000003 .0059999998 .28666667 0 .25000004 0 C .2346667 0 .21833337 .0016666666 .201 .005 C .18433333 .008333333 .168 .013666667 .15200001 .021000002 C .13599999 .028333337 .12066666 .037666669 .106 .049000004 C .09133333 .06033333 .078666668 .074 .067999999 .09 L .06600001 .09 L .06600001 .012 L 0 .012 L 0 .76800009 Z "/>
</symbol>
<symbol id="font_1_2d">
<path d="M .33800004 .012 C .3366667 .024666667 .3356667 .037 .335 .049000004 C .335 .061666669 .335 .07433334 .335 .087000008 L .33300004 .087000008 C .3256667 .07433334 .31633336 .06266667 .305 .052 C .2936667 .041333334 .28100003 .032 .26700003 .024 C .25300003 .016666668 .23800002 .011 .222 .0069999999 C .2066667 .0023333333 .19133336 0 .176 0 C .116 0 .071666669 .015666666 .042999999 .047 C .014333333 .079 0 .124333348 0 .183 L 0 .48000003 L .06600001 .48000003 L .06600001 .221 C .06600001 .195 .06800001 .17199999 .072000008 .152 C .076000008 .13200002 .082666669 .11500001 .092 .101 C .102 .08766667 .11500001 .07733334 .13100001 .07 C .14766668 .06333333 .16833335 .060000004 .19300002 .060000004 C .19633335 .060000004 .20566668 .06133334 .22100002 .064 C .23633336 .06666667 .25233338 .074 .26900003 .086 C .28633336 .09800001 .3016667 .116000007 .31500004 .14 C .32833336 .16399999 .335 .19733334 .335 .24000001 L .335 .48000003 L .40100003 .48000003 L .40100003 .11500001 C .40100003 .102333348 .40133337 .086333338 .40200005 .067 C .40333335 .04766667 .40466667 .029333337 .40600003 .012 L .33800004 .012 Z "/>
</symbol>
<symbol id="font_1_27">
<path d="M .28700004 .36900003 C .27700005 .38833333 .26366667 .40366666 .24700001 .41500003 C .23033338 .42633335 .21000004 .432 .18600002 .432 C .17466669 .432 .163 .4306667 .15100003 .428 C .13966668 .42533336 .12933333 .421 .12000001 .41500003 C .110666688 .4096667 .103000018 .4026667 .09700001 .39400003 C .091666679 .38533334 .08900001 .3746667 .08900001 .36200003 C .08900001 .34 .09666667 .324 .11200001 .314 C .12733336 .304 .15033336 .29533337 .18100003 .28800003 L .24800003 .272 C .28066669 .26466669 .3076667 .24966668 .32900004 .227 C .35100005 .205 .36200003 .17733334 .36200003 .144 C .36200003 .11866667 .35666669 .09666667 .34600003 .078 C .33600006 .060000004 .32233338 .044999999 .30500005 .033 C .2883334 .021666667 .26900003 .013333333 .24700001 .007999999 C .22500003 .0026666665 .20266669 0 .18 0 C .14400001 0 .110333349 .0066666665 .079 .02 C .048333337 .033999999 .022 .05766667 0 .091000009 L .057000005 .13000001 C .07033334 .10866668 .087000008 .09166667 .107 .079 C .12766667 .06633333 .15200001 .060000004 .18 .060000004 C .19333335 .060000004 .2066667 .06133334 .22000003 .064 C .23333335 .06733334 .245 .072000008 .25500003 .078 C .2656667 .08466667 .27400003 .093 .28000004 .10300001 C .2866667 .113000009 .29000003 .12466667 .29000003 .138 C .29000003 .16133334 .28133337 .17800002 .26400004 .18800001 C .24666672 .19866668 .22566669 .207 .201 .213 L .137 .228 C .129 .23 .118 .23333335 .10400001 .238 C .090666677 .24266668 .07733334 .24966668 .064 .259 C .051333339 .26833336 .040333336 .28033335 .031000004 .29500003 C .021666669 .31033335 .017 .32900004 .017 .351 C .017 .375 .021666669 .39600004 .031000004 .414 C .041000006 .432 .054000006 .4466667 .07000001 .458 C .08666667 .46933333 .10533335 .4776667 .12600002 .483 C .14666668 .489 .168 .492 .19 .492 C .22266668 .492 .25300003 .48566667 .28100003 .47300003 C .30900003 .46033336 .3306667 .4386667 .34600003 .40800003 L .28700004 .36900003 Z "/>
</symbol>
<symbol id="font_1_2e">
<path d="M 0 .049999998 L .5 .049999998 L .5 0 L 0 0 L 0 .049999998 Z "/>
</symbol>
<symbol id="font_1_17">
<path d="M .27600003 .40800003 L .165 .40800003 L .165 0 L .09900001 0 L .09900001 .40800003 L 0 .40800003 L 0 .46800003 L .09900001 .46800003 L .09900001 .596 C .09900001 .658 .113333348 .70199999 .142 .72800007 C .17066668 .7546666 .20866668 .76799997 .256 .768 C .26533333 .76799997 .27466668 .7673333 .284 .76600006 C .29400004 .76466676 .30366669 .763 .31300003 .76100006 L .30100004 .70100006 C .293 .70300009 .2846667 .7046667 .27600003 .70600005 C .26733337 .7073333 .25866667 .708 .25 .708 C .23200001 .708 .21733336 .705 .20600002 .69900009 C .19466669 .6930001 .186 .6843334 .18 .67300006 C .17400001 .6623333 .17 .6496667 .16800002 .63500007 C .16600001 .6203334 .165 .6046667 .165 .588 L .165 .46800003 L .27600003 .46800003 L .27600003 .40800003 Z "/>
</symbol>
<symbol id="font_1_1d">
<path d="M .068 .46800003 C .06933334 .45533336 .07000001 .44266669 .07000001 .43 C .07066668 .418 .07100001 .40566669 .07100001 .393 L .073 .393 C .08033334 .40566669 .08966667 .41733337 .10100001 .42800004 C .112333338 .4386667 .125 .44766668 .13900002 .455 C .15300001 .46300004 .16766668 .469 .183 .47300003 C .199 .4776667 .21466668 .48000003 .23000002 .48000003 C .29000003 .48000003 .33433334 .46400003 .363 .432 C .39166669 .40066669 .40600003 .35566668 .40600003 .29700003 L .40600003 0 L .34 0 L .34 .259 C .34 .31100003 .331 .35066668 .31300003 .37800003 C .29500003 .40600003 .2616667 .42 .213 .42000003 C .20966667 .42 .20033334 .4186667 .185 .416 C .1696667 .41333334 .15333335 .40600003 .136 .39400003 C .119333337 .382 .10433334 .364 .091000009 .34 C .07766668 .316 .07100001 .28266669 .07100001 .24000001 L .07100001 0 L .0050000029 0 L .0050000029 .365 C .0050000029 .37766669 .0043333347 .39366666 .0029999987 .41300003 C .0023333356 .43233336 .001333336 .4506667 0 .46800003 L .068 .46800003 Z "/>
</symbol>
<symbol id="font_1_11">
<path d="M .365 .37066669 C .3536667 .388 .33766667 .4026667 .317 .41466669 C .29700003 .4266667 .27400003 .4326667 .24800001 .4326667 C .22066669 .43333338 .19600003 .42900003 .17400003 .41966669 C .15266669 .41033338 .13433336 .39733336 .11900002 .3806667 C .103666689 .36400006 .09200001 .344 .08400001 .3206667 C .07600001 .298 .07200001 .27333335 .07200001 .24666669 C .07200001 .22000002 .07600001 .19500001 .08400001 .17166668 C .09200001 .149 .103666689 .12933333 .11900002 .11266667 C .13433336 .09599999 .15266669 .083000008 .17400003 .07366667 C .19600003 .06433334 .22066669 .060000004 .24800001 .06066667 C .27400003 .06066667 .29700003 .06666667 .317 .078666668 C .33766667 .090666677 .3536667 .105333339 .365 .12266667 L .419 .08166667 C .3956667 .05433334 .36933337 .034 .34 .020666669 C .31066669 .008 .28 .0013333339 .24800001 .0006666677 C .21000003 .0000000009313226 .17566669 .0056666678 .14500001 .017666668 C .11433334 .030333335 .08800001 .04766667 .066000018 .06966667 C .044666679 .09166667 .028333342 .11766667 .017000009 .14766668 C .005666672 .17833334 .0000000037252905 .21133335 .0000000037252905 .24666669 C .0000000037252905 .282 .005666672 .31466667 .017000009 .3446667 C .028333342 .37533335 .044666679 .40166668 .066000018 .4236667 C .08800001 .4456667 .11433334 .46266673 .14500001 .47466669 C .17566669 .4873334 .21000003 .49333338 .24800001 .4926667 C .28 .492 .31066669 .48500005 .34 .4716667 C .36933337 .45900003 .3956667 .43900005 .419 .4116667 L .365 .37066669 Z "/>
</symbol>
<symbol id="font_1_2b">
<path d="M .3 .42000003 L .165 .42000003 L .165 .144 C .165 .12666667 .16666667 .112333338 .17000002 .101 C .17333335 .09033334 .17800002 .08200001 .18400002 .076000008 C .19000001 .07 .19700003 .06566667 .20500002 .063 C .21366668 .061 .223 .060000004 .23300001 .060000004 C .24433334 .060000004 .256 .061666669 .268 .065000008 C .28 .068333338 .291 .07266667 .30100004 .078 L .30400003 .017 C .27933336 .005666667 .24966669 0 .21500002 0 C .20233335 0 .18900001 .0016666666 .17500001 .005 C .16166668 .008333333 .14933335 .014666666 .13800001 .024 C .12666668 .033333336 .117333348 .046000005 .11000001 .062 C .102666679 .078 .09900001 .099 .09900001 .125 L .09900001 .42000003 L 0 .42000003 L 0 .48000003 L .09900001 .48000003 L .09900001 .61200007 L .165 .61200007 L .165 .48000003 L .3 .48000003 L .3 .42000003 Z "/>
</symbol>
<symbol id="font_1_1a">
<path d="M .09600001 .648 C .09600001 .634 .09100001 .62233337 .08100001 .61300006 C .07100001 .60433337 .060000004 .6 .048 .6 C .036000004 .6 .025 .60433337 .015000001 .61300006 C .0050000005 .62233337 0 .634 0 .648 C 0 .662 .0050000005 .67333337 .015000001 .68200007 C .025 .69133338 .036000004 .69600006 .048 .69600006 C .060000004 .69600006 .07100001 .69133338 .08100001 .68200007 C .09100001 .67333337 .09600001 .662 .09600001 .648 M .08100001 0 L .015000001 0 L .015000001 .46800003 L .08100001 .46800003 L .08100001 0 Z "/>
</symbol>
<symbol id="font_1_12">
<path d="M .108 .054 C .108 .040000004 .10300001 .027333335 .093 .016 C .083000008 .0053333339 .07 0 .054000014 0 C .038000008 0 .025 .0053333339 .015000001 .016 C .0050000005 .027333335 0 .040000004 0 .054 C 0 .068 .0050000005 .08033333 .015000001 .091 C .025 .10233334 .038000008 .108 .054000014 .108 C .07 .108 .083000008 .10233334 .093 .091 C .10300001 .08033333 .108 .068 .108 .054 M .108 .42500005 C .108 .41100005 .10300001 .3983334 .093 .38700003 C .083000008 .37633337 .07 .37100003 .054000014 .37100003 C .038000008 .37100003 .025 .37633337 .015000001 .38700003 C .0050000005 .3983334 0 .41100005 0 .42500005 C 0 .43900005 .0050000005 .45133338 .015000001 .46200005 C .025 .47333337 .038000008 .479 .054000014 .47900004 C .07 .479 .083000008 .47333337 .093 .46200005 C .10300001 .45133338 .108 .43900005 .108 .42500005 Z "/>
</symbol>
<symbol id="font_1_1">
<path d="M 0 0 Z "/>
</symbol>
<symbol id="font_1_18">
<path d="M .41700004 .65400007 L .127 .65400007 L .123 .441 C .13833334 .44700004 .154 .45133338 .17000002 .45400004 C .186 .45666669 .202 .45800004 .218 .458 C .25133334 .45800004 .28166668 .45233334 .30900003 .441 C .33633337 .42966668 .35966669 .4136667 .379 .393 C .39900003 .373 .41433335 .349 .425 .321 C .43633334 .2936667 .442 .26366667 .442 .231 C .442 .19700001 .43600003 .16566667 .42400003 .137 C .41200004 .109000008 .39533339 .08466667 .374 .064 C .3526667 .044 .32733334 .028333337 .298 .017 C .26933334 .005666667 .23799999 0 .204 0 C .15933334 0 .118999999 .0106666679 .08300001 .032 C .04700001 .05333334 .019333339 .08466667 0 .126 L .071 .157 C .08433334 .12900001 .10300001 .10666668 .127 .09 C .15100001 .074 .17866667 .066 .21000001 .066 C .23266669 .066 .25366668 .07 .273 .078 C .29233334 .08666667 .30900003 .09800001 .323 .112 C .33766667 .126 .349 .14266667 .35700003 .162 C .36566667 .18133335 .37 .202 .37 .224 C .37 .24866669 .36566667 .27133335 .35700003 .292 C .34833337 .31266669 .33633337 .33033336 .321 .345 C .3056667 .36033333 .28733335 .372 .266 .38000003 C .24466665 .388 .22133334 .39200006 .19600001 .39200003 C .1706667 .39200006 .14533335 .38833336 .12000001 .381 C .095333348 .37433336 .07166668 .365 .049000004 .35300002 L .056 .72 L .41700004 .72 L .41700004 .65400007 Z "/>
</symbol>
<use xlink:href="#font_1_25" transform="matrix(13.963635,0,0,-13.963635,21.221354,19.358839)" fill="#c00000"/>
<use xlink:href="#font_1_1c" transform="matrix(13.963635,0,0,-13.963635,24.385514,25.963639)" fill="#c00000"/>
<use xlink:href="#font_1_1e" transform="matrix(13.963635,0,0,-13.963635,35.997674,26.131203)" fill="#c00000"/>
<use xlink:href="#font_1_14" transform="matrix(13.963635,0,0,-13.963635,44.132886,26.131203)" fill="#c00000"/>
<use xlink:href="#font_1_d" transform="matrix(13.963635,0,0,-13.963635,53.077989,26.131203)" fill="#c00000"/>
<use xlink:href="#font_1_2d" transform="matrix(13.963635,0,0,-13.963635,61.576257,26.131203)" fill="#c00000"/>
<use xlink:href="#font_1_27" transform="matrix(13.963635,0,0,-13.963635,68.77591,26.131203)" fill="#c00000"/>
<use xlink:href="#font_1_2e" transform="matrix(13.963635,0,0,-13.963635,74.31389,27.709094)" fill="#c00000"/>
<use xlink:href="#font_1_17" transform="matrix(13.963635,0,0,-13.963635,81.513538,25.963639)" fill="#c00000"/>
<use xlink:href="#font_1_2d" transform="matrix(13.963635,0,0,-13.963635,86.45107,26.131203)" fill="#c00000"/>
<use xlink:href="#font_1_1d" transform="matrix(13.963635,0,0,-13.963635,94.125499,25.963639)" fill="#c00000"/>
<use xlink:href="#font_1_11" transform="matrix(13.963635,0,0,-13.963635,101.60442,26.14051)" fill="#c00000"/>
<use xlink:href="#font_1_2b" transform="matrix(13.963635,0,0,-13.963635,107.88247,26.131203)" fill="#c00000"/>
<use xlink:href="#font_1_1a" transform="matrix(13.963635,0,0,-13.963635,113.3227,25.963639)" fill="#c00000"/>
<use xlink:href="#font_1_1e" transform="matrix(13.963635,0,0,-13.963635,116.36119,26.131203)" fill="#c00000"/>
<use xlink:href="#font_1_1d" transform="matrix(13.963635,0,0,-13.963635,124.87342,25.963639)" fill="#c00000"/>
<use xlink:href="#font_1_25" transform="matrix(13.963635,0,0,-13.963635,133.07846,19.358839)" fill="#c00000"/>
<use xlink:href="#font_1_12" transform="matrix(13.963635,0,0,-13.963635,136.49394,26.04742)" fill="#c00000"/>
<use xlink:href="#font_1_1" transform="matrix(13.963635,0,0,-13.963635,139.18335,25.963639)" fill="#c00000"/>
<use xlink:href="#font_1_18" transform="matrix(13.963635,0,0,-13.963635,143.72992,26.131203)" fill="#c00000"/>
<symbol id="font_1_13">
<path d="M .066999997 0 L 0 0 L .066999997 .23500002 L .148 .23500002 L .066999997 0 Z "/>
</symbol>
<symbol id="font_1_7">
<path d="M .512 .108 L .514 .108 L .514 .708 L .586 .708 L .586 0 L .496 0 L .074 .606 L .07200001 .606 L .07200001 0 L 0 0 L 0 .708 L .09 .708 L .512 .108 Z "/>
</symbol>
<symbol id="font_1_15">
<path d="M .388 .282 C .388 .32666669 .3746667 .3626667 .34800003 .39000003 C .32133333 .418 .284 .432 .23600002 .432 C .21466668 .432 .194 .42766667 .17400003 .419 C .15400002 .411 .13633335 .4 .12100002 .386 C .106333348 .372 .09433334 .35600005 .08500001 .338 C .076333347 .32000003 .07200001 .30133335 .07200001 .282 L .388 .282 M .07000001 .228 C .07200001 .20466668 .07766668 .18266666 .08700001 .162 C .09633335 .14133333 .10866668 .123333338 .12400001 .108 C .13933335 .093333337 .15700002 .08166667 .17700002 .07300001 C .19700003 .06433334 .21866669 .060000004 .24200003 .060000004 C .27733336 .060000004 .3076667 .068 .333 .08400001 C .359 .10066667 .37866668 .11966667 .39200003 .141 L .44300003 .09900001 C .41500006 .06366667 .38400004 .038333339 .35000003 .023000002 C .3166667 .0076666676 .28066669 0 .24200003 0 C .20733334 0 .17500001 .0059999998 .14500001 .018 C .11566668 .030666667 .09033334 .047999998 .069000009 .07 C .04766667 .09200001 .03066667 .11800001 .018000003 .148 C .0060000035 .17800002 .0000000037252905 .21066667 .0000000037252905 .246 C .0000000037252905 .28133334 .0060000035 .314 .018000003 .344 C .030000007 .37399999 .04666667 .4 .068 .42200003 C .08933333 .444 .114333357 .461 .14300002 .47300003 C .17166668 .48566667 .20266669 .492 .23600002 .492 C .27133335 .492 .303 .48566667 .331 .47300003 C .359 .46033336 .38233338 .44333337 .40100003 .42200003 C .42033337 .40133334 .43500004 .37666667 .44500003 .34800003 C .455 .32000003 .46 .29 .46 .25800003 L .46 .228 L .07000001 .228 Z "/>
</symbol>
<symbol id="font_1_c">
<path d="M .29000003 .245 C .27333335 .245 .25233335 .244 .22700002 .242 C .20233335 .24066668 .17833334 .23666668 .15500002 .23 C .13233336 .22399999 .11266669 .21433334 .096000019 .201 C .08000001 .18766667 .07200001 .16933334 .07200001 .146 C .07200001 .13066668 .07500001 .117333348 .081000018 .106000009 C .08766669 .09533334 .09633335 .086333338 .10700001 .079 C .117666687 .072333339 .12933335 .06733334 .14200002 .064 C .15533336 .06133334 .16866668 .060000004 .18200001 .060000004 C .20600002 .060000004 .22666669 .064 .24400003 .072000008 C .262 .080000009 .27699999 .090666677 .289 .10400001 C .301 .118 .30966667 .134 .315 .152 C .321 .17066668 .324 .19033335 .324 .21100001 L .324 .245 L .29000003 .245 M .324 .299 L .324 .31100003 C .324 .39166669 .284 .432 .20400001 .432 C .14933335 .432 .10166668 .4136667 .061000009 .377 L .021000009 .42400003 C .06500001 .46933333 .13100003 .492 .21900003 .492 C .24166669 .492 .26333336 .48866669 .284 .48200003 C .30533336 .47533334 .3236667 .465 .33900003 .451 C .35433338 .43766669 .36666668 .4206667 .37600003 .4 C .38533334 .37933336 .39000003 .35466669 .39000003 .326 L .39000003 .117000009 C .39000003 .09900001 .3906667 .080000009 .39200003 .060000004 C .39400003 .04066667 .396 .024666667 .398 .012 L .33400003 .012 C .33200003 .023333334 .33033333 .03566667 .329 .049000004 C .32833336 .062333336 .328 .075333338 .328 .08800001 L .326 .08800001 C .3066667 .056666674 .2836667 .033999999 .257 .02 C .231 .0066666665 .199 0 .16100002 0 C .14033334 0 .120333347 .0029999999 .10100001 .009 C .08166668 .014333334 .06433334 .022666669 .049000008 .034 C .034333338 .046000005 .022333339 .060333339 .013000008 .07700001 C .0043333384 .09433334 .0000000037252905 .11433333 .0000000037252905 .137 C .0000000037252905 .175 .009666673 .20466668 .02900001 .22600001 C .04900001 .24800001 .073666688 .26433335 .103000018 .275 C .13300002 .28566668 .16466668 .29233334 .19800002 .29500003 C .23200004 .29766668 .263 .299 .291 .299 L .324 .299 Z "/>
</symbol>
<symbol id="font_1_20">
<path d="M .42700003 .522 C .42700003 .54800006 .4226667 .57233336 .41400004 .595 C .40600006 .6176667 .39433337 .6373334 .37900005 .65400007 C .36366669 .6706667 .34500004 .6836667 .323 .6930001 C .30166669 .70300009 .27733336 .708 .25000004 .70800009 C .2226667 .708 .19766669 .70300009 .17500001 .6930001 C .15233334 .6836667 .13266666 .6706667 .116000007 .65400007 C .09933334 .6373334 .086333338 .6176667 .077 .595 C .06766667 .57233336 .063 .54800006 .063 .522 C .063 .49600006 .06766667 .4716667 .077 .44900004 C .086333338 .42633335 .09933334 .40666668 .116000007 .39000003 C .13266666 .37333334 .15233334 .36 .17500001 .35000003 C .19766669 .34066669 .2226667 .33600006 .25000004 .33600004 C .27733336 .33600006 .30166669 .34066669 .323 .35000003 C .34500004 .36 .36366669 .37333334 .37900005 .39000003 C .39433337 .40666668 .40600006 .42633335 .41400004 .44900004 C .4226667 .4716667 .42700003 .49600006 .42700003 .522 M 0 .75600007 L .06600001 .75600007 L .06600001 .67800006 L .067999999 .67800006 C .078666668 .694 .09133333 .7076667 .106 .71900007 C .12066666 .7303334 .13599999 .7396667 .15200001 .74700006 C .168 .7543333 .18433333 .7596667 .201 .763 C .21833337 .76633337 .2346667 .76799997 .25000004 .768 C .28666667 .76799997 .32000003 .7616667 .35000003 .7490001 C .3806667 .73700007 .40700004 .7200001 .42900006 .6980001 C .45100007 .67600008 .46800006 .65000006 .48000006 .62 C .49266673 .59000006 .49900005 .5573334 .49900005 .522 C .49900005 .48666669 .49266673 .45400004 .48000006 .42400003 C .46800006 .39400003 .45100007 .36800004 .42900006 .34600003 C .40700004 .32400004 .3806667 .3066667 .35000003 .29400004 C .32000003 .28200004 .28666667 .27600003 .25000004 .27600003 C .2346667 .27600003 .21833337 .2776667 .201 .28100003 C .18433333 .28433336 .168 .28966669 .15200001 .29700003 C .13599999 .30433337 .12066666 .3136667 .106 .32500003 C .09133333 .33633337 .078666668 .35000003 .067999999 .36600004 L .06600001 .36600004 L .06600001 0 L 0 0 L 0 .75600007 Z "/>
</symbol>
<use xlink:href="#font_1_13" transform="matrix(13.963635,0,0,-13.963635,151.73264,27.918547)" fill="#181717"/>
<use xlink:href="#font_1_1" transform="matrix(13.963635,0,0,-13.963635,154.6999,25.963639)" fill="#181717"/>
<use xlink:href="#font_1_25" transform="matrix(13.963635,0,0,-13.963635,159.97118,19.358839)" fill="#181717"/>
<use xlink:href="#font_1_1c" transform="matrix(13.963635,0,0,-13.963635,163.13394,25.963639)" fill="#181717"/>
<use xlink:href="#font_1_1e" transform="matrix(13.963635,0,0,-13.963635,174.7447,26.131203)" fill="#181717"/>
<use xlink:href="#font_1_14" transform="matrix(13.963635,0,0,-13.963635,182.87853,26.131203)" fill="#181717"/>
<use xlink:href="#font_1_d" transform="matrix(13.963635,0,0,-13.963635,191.82224,26.131203)" fill="#181717"/>
<use xlink:href="#font_1_2d" transform="matrix(13.963635,0,0,-13.963635,200.3191,26.131203)" fill="#181717"/>
<use xlink:href="#font_1_27" transform="matrix(13.963635,0,0,-13.963635,207.51735,26.131203)" fill="#181717"/>
<use xlink:href="#font_1_2e" transform="matrix(13.963635,0,0,-13.963635,213.05394,27.709094)" fill="#181717"/>
<use xlink:href="#font_1_2d" transform="matrix(13.963635,0,0,-13.963635,221.06209,26.131203)" fill="#181717"/>
<use xlink:href="#font_1_1a" transform="matrix(13.963635,0,0,-13.963635,228.80492,25.963639)" fill="#181717"/>
<use xlink:href="#font_1_14" transform="matrix(13.963635,0,0,-13.963635,231.7303,26.131203)" fill="#181717"/>
<use xlink:href="#font_1_25" transform="matrix(13.963635,0,0,-13.963635,241.06499,19.358839)" fill="#181717"/>
<use xlink:href="#font_1_12" transform="matrix(13.963635,0,0,-13.963635,244.4791,26.04742)" fill="#181717"/>
<use xlink:href="#font_1_1" transform="matrix(13.963635,0,0,-13.963635,247.1671,25.963639)" fill="#181717"/>
<use xlink:href="#font_1_7" transform="matrix(13.963635,0,0,-13.963635,252.38253,25.963639)" fill="#181717"/>
<use xlink:href="#font_1_1e" transform="matrix(13.963635,0,0,-13.963635,262.58296,26.131203)" fill="#181717"/>
<use xlink:href="#font_1_1d" transform="matrix(13.963635,0,0,-13.963635,271.0938,25.963639)" fill="#181717"/>
<use xlink:href="#font_1_15" transform="matrix(13.963635,0,0,-13.963635,278.57133,26.131203)" fill="#181717"/>
<use xlink:href="#font_1_13" transform="matrix(13.963635,0,0,-13.963635,286.5515,27.918547)" fill="#181717"/>
<use xlink:href="#font_1_1" transform="matrix(13.963635,0,0,-13.963635,289.5188,25.963639)" fill="#181717"/>
<use xlink:href="#font_1_25" transform="matrix(13.963635,0,0,-13.963635,294.7901,19.358839)" fill="#181717"/>
<use xlink:href="#font_1_14" transform="matrix(13.963635,0,0,-13.963635,297.5758,26.131203)" fill="#181717"/>
<use xlink:href="#font_1_27" transform="matrix(13.963635,0,0,-13.963635,305.97496,26.131203)" fill="#181717"/>
<use xlink:href="#font_1_2b" transform="matrix(13.963635,0,0,-13.963635,311.70704,26.131203)" fill="#181717"/>
<use xlink:href="#font_1_2e" transform="matrix(13.963635,0,0,-13.963635,316.14048,27.709094)" fill="#181717"/>
<use xlink:href="#font_1_2b" transform="matrix(13.963635,0,0,-13.963635,323.33876,26.131203)" fill="#181717"/>
<use xlink:href="#font_1_27" transform="matrix(13.963635,0,0,-13.963635,328.23298,26.131203)" fill="#181717"/>
<use xlink:href="#font_1_c" transform="matrix(13.963635,0,0,-13.963635,334.43983,26.131203)" fill="#181717"/>
<use xlink:href="#font_1_20" transform="matrix(13.963635,0,0,-13.963635,342.02906,29.985165)" fill="#181717"/>
<use xlink:href="#font_1_25" transform="matrix(13.963635,0,0,-13.963635,350.91694,19.358839)" fill="#181717"/>
<use xlink:href="#font_1_12" transform="matrix(13.963635,0,0,-13.963635,354.33103,26.04742)" fill="#181717"/>
<use xlink:href="#font_1_1" transform="matrix(13.963635,0,0,-13.963635,357.01905,25.963639)" fill="#181717"/>
<use xlink:href="#font_1_7" transform="matrix(13.963635,0,0,-13.963635,362.23445,25.963639)" fill="#181717"/>
<use xlink:href="#font_1_1e" transform="matrix(13.963635,0,0,-13.963635,372.4349,26.131203)" fill="#181717"/>
<use xlink:href="#font_1_1d" transform="matrix(13.963635,0,0,-13.963635,380.9457,25.963639)" fill="#181717"/>
<use xlink:href="#font_1_15" transform="matrix(13.963635,0,0,-13.963635,388.42326,26.131203)" fill="#181717"/>
<use xlink:href="#font_1_13" transform="matrix(13.963635,0,0,-13.963635,396.40348,27.918547)" fill="#181717"/>
<use xlink:href="#font_1_1" transform="matrix(13.963635,0,0,-13.963635,399.37074,25.963639)" fill="#181717"/>
<symbol id="font_1_19">
<path d="M 0 .75600007 L .06600001 .75600007 L .06600001 .393 L .067999999 .393 C .075333338 .40566669 .08466667 .41733337 .09600001 .42800004 C .10733333 .4386667 .120000008 .44766668 .134 .455 C .148 .46300004 .16266667 .469 .178 .47300003 C .194 .4776667 .20966669 .48000003 .22500003 .48000003 C .28500004 .48000003 .32933335 .46400003 .358 .432 C .3866667 .40066669 .40100003 .35566668 .40100003 .29700003 L .40100003 0 L .335 0 L .335 .259 C .335 .31100003 .326 .35066668 .30800004 .37800003 C .29000003 .40600003 .2566667 .42 .208 .42000003 C .20466668 .42 .19533335 .4186667 .18 .416 C .16466667 .41333334 .14833334 .40600003 .13100001 .39400003 C .11433333 .382 .09933334 .364 .086 .34 C .072666678 .316 .06600001 .28266669 .06600001 .24000001 L .06600001 0 L 0 0 L 0 .75600007 Z "/>
</symbol>
<symbol id="font_1_1b">
<path d="M .06600001 0 L 0 0 L 0 .75600007 L .06600001 .75600007 L .06600001 0 Z "/>
</symbol>
<symbol id="font_1_23">
<path d="M .108 .054 C .108 .040000004 .10300001 .027333335 .093 .016 C .083000008 .0053333339 .07 0 .054000014 0 C .038000008 0 .025 .0053333339 .015000001 .016 C .0050000005 .027333335 0 .040000004 0 .054 C 0 .068 .0050000005 .08033333 .015000001 .091 C .025 .10233334 .038000008 .108 .054000014 .108 C .07 .108 .083000008 .10233334 .093 .091 C .10300001 .08033333 .108 .068 .108 .054 Z "/>
</symbol>
<symbol id="font_1_2f">
<path d="M .193 .25 L .023000002 .46800003 L .113000009 .46800003 L .24300002 .293 L .367 .46800003 L .44900004 .46800003 L .286 .25 L .48200003 0 L .39200003 0 L .23500002 .20500002 L .08400001 0 L 0 0 L .193 .25 Z "/>
</symbol>
<symbol id="font_1_30">
<path d="M .24000003 .66600009 C .20133335 .66600009 .17066668 .65566679 .148 .63500007 C .126 .6143334 .10933334 .5886667 .098000008 .558 C .086666669 .5273333 .079333338 .4946667 .076000008 .46 C .07333334 .42533336 .072000008 .39400003 .072000008 .366 C .072000008 .33799998 .07333334 .30666668 .076000008 .272 C .079333338 .23733334 .086666669 .20466666 .098000008 .174 C .10933334 .14333333 .126 .11766667 .148 .097 C .17066668 .07633334 .20133335 .066 .24000003 .066 C .2786667 .066 .30900005 .07633334 .33100004 .097 C .3536667 .11766667 .37066666 .14333333 .38200004 .174 C .39333336 .20466666 .40033333 .23733334 .403 .272 C .40633334 .30666668 .408 .33799998 .408 .366 C .408 .39400003 .40633334 .42533336 .403 .46 C .40033333 .4946667 .39333336 .5273333 .38200004 .558 C .37066666 .5886667 .3536667 .6143334 .33100004 .63500007 C .30900005 .65566679 .2786667 .66600009 .24000003 .66600009 M .24000003 .73200008 C .29066668 .73200008 .33166669 .7203334 .36300005 .6970001 C .39433337 .6736667 .4186667 .64400008 .43600006 .60800006 C .45333339 .5720001 .465 .5323334 .47100003 .48900003 C .477 .44633333 .48000003 .40533338 .48000003 .366 C .48000003 .32666669 .477 .28533335 .47100003 .242 C .465 .19933333 .45333339 .16000001 .43600006 .124000009 C .4186667 .088 .39433337 .058333339 .36300005 .035000005 C .33166669 .011666668 .29066668 0 .24000003 0 C .18933334 0 .14833333 .011666668 .117 .035000005 C .085666667 .058333339 .061333334 .088 .044 .124000009 C .026666666 .16000001 .015 .19933333 .009 .242 C .0029999999 .28533335 0 .32666669 0 .366 C 0 .40533338 .0029999999 .44633333 .009 .48900003 C .015 .5323334 .026666666 .5720001 .044 .60800006 C .061333334 .64400008 .085666667 .6736667 .117 .6970001 C .14833333 .7203334 .18933334 .73200008 .24000003 .73200008 Z "/>
</symbol>
<symbol id="font_1_16">
<path d="M .37600003 .21100001 C .37600003 .23166667 .37233339 .25066666 .36500005 .268 C .3576667 .286 .34733335 .30133335 .33400003 .314 C .32133339 .32733337 .30533336 .33766667 .286 .345 C .26733337 .35233335 .24666669 .35600005 .22400002 .356 C .20066668 .35600005 .17966669 .35233335 .161 .345 C .14233333 .33766667 .12633334 .32733337 .113000009 .314 C .10033333 .30133335 .090333338 .286 .083000008 .268 C .075666669 .25066666 .072 .23166667 .072 .21100001 C .072 .19033335 .075666669 .171 .083000008 .153 C .090333338 .13566667 .10033333 .12033334 .113000009 .10700001 C .12633334 .09433334 .14233333 .08433334 .161 .07700001 C .17966669 .06966667 .20066668 .066 .22400002 .066 C .24666669 .066 .26733337 .06966667 .286 .07700001 C .30533336 .08433334 .32133339 .09433334 .33400003 .10700001 C .34733335 .12033334 .3576667 .13566667 .36500005 .153 C .37233339 .171 .37600003 .19033335 .37600003 .21100001 M .35000003 .54100009 C .35000003 .5590001 .3466667 .5756667 .34000004 .5910001 C .33400003 .60633346 .32533337 .61933347 .31400005 .63000008 C .3026667 .6413334 .28933335 .6500001 .27400003 .6560001 C .25866667 .66266676 .24200003 .66600009 .22400002 .66600009 C .20600002 .66600009 .18933334 .66266676 .17400001 .6560001 C .15866667 .6500001 .14533334 .6413334 .134 .63000008 C .122666668 .61933347 .113666679 .60633346 .10700001 .5910001 C .10100001 .5756667 .09800001 .5590001 .098000008 .54100009 C .09800001 .52300009 .10100001 .5063334 .10700001 .49100004 C .113666679 .47566668 .122666668 .46233336 .134 .451 C .14533334 .44033335 .15866667 .4316667 .17400001 .425 C .18933334 .419 .20600002 .416 .22400002 .416 C .24200003 .416 .25866667 .419 .27400003 .425 C .28933335 .4316667 .3026667 .44033335 .31400005 .451 C .32533337 .46233336 .33400003 .47566668 .34000004 .49100004 C .3466667 .5063334 .35000003 .52300009 .35000003 .54100009 M .132 .389 C .11666667 .39433337 .10233333 .40200005 .089 .412 C .07633334 .42266668 .065333347 .43500004 .056000007 .449 C .046666668 .46300004 .039333334 .47833336 .034000007 .495 C .02866667 .5116667 .026000003 .52900007 .026000005 .54700008 C .026000003 .57500007 .03133334 .6003334 .042 .623 C .052666669 .6463334 .067 .66600009 .08500001 .68200007 C .10300001 .698 .124000009 .71033337 .148 .71900007 C .172 .7276667 .19733334 .73200008 .22400002 .73200008 C .2506667 .73200008 .27600003 .7276667 .3 .71900007 C .32400004 .71033337 .34500004 .698 .36300005 .68200007 C .38100005 .66600009 .39533339 .6463334 .40600003 .623 C .41666667 .6003334 .42200003 .57500007 .42200003 .54700008 C .42200003 .52900007 .41933338 .5116667 .41400004 .495 C .4086667 .47833336 .40133334 .46300004 .39200003 .449 C .38266669 .43500004 .37133337 .42266668 .35800005 .412 C .34533335 .40200005 .33133338 .39433337 .316 .389 L .316 .38700003 C .35600005 .37633337 .388 .35433338 .41200004 .321 C .43600003 .28766669 .44800005 .24766667 .44800005 .201 C .44800005 .17033334 .4416667 .14266667 .42900003 .11800001 C .41700007 .09333334 .4006667 .072000008 .38000003 .054000006 C .36 .03666667 .33633337 .023333334 .30900003 .014 C .28233335 .004666667 .25400005 0 .22400002 0 C .194 0 .16533333 .004666667 .138 .014 C .11133333 .023333334 .08766667 .03666667 .067 .054000006 C .047000003 .072000008 .03066667 .09333334 .018000003 .11800001 C .006000001 .14266667 0 .17033334 0 .201 C 0 .24766667 .012000001 .28766669 .036000004 .321 C .06 .35433338 .092 .37633337 .132 .38700003 L .132 .389 Z "/>
</symbol>
<use xlink:href="#font_1_25" transform="matrix(13.963635,0,0,-13.963635,17.596354,38.558835)" fill="#181717"/>
<use xlink:href="#font_1_19" transform="matrix(13.963635,0,0,-13.963635,20.830332,45.163637)" fill="#181717"/>
<use xlink:href="#font_1_1e" transform="matrix(13.963635,0,0,-13.963635,28.239438,45.3312)" fill="#181717"/>
<use xlink:href="#font_1_27" transform="matrix(13.963635,0,0,-13.963635,36.27691,45.3312)" fill="#181717"/>
<use xlink:href="#font_1_2b" transform="matrix(13.963635,0,0,-13.963635,42.010377,45.3312)" fill="#181717"/>
<use xlink:href="#font_1_27" transform="matrix(13.963635,0,0,-13.963635,46.906026,45.3312)" fill="#181717"/>
<use xlink:href="#font_1_2e" transform="matrix(13.963635,0,0,-13.963635,52.444005,46.90909)" fill="#181717"/>
<use xlink:href="#font_1_17" transform="matrix(13.963635,0,0,-13.963635,59.643655,45.163637)" fill="#181717"/>
<use xlink:href="#font_1_1a" transform="matrix(13.963635,0,0,-13.963635,64.58119,45.163637)" fill="#181717"/>
<use xlink:href="#font_1_1b" transform="matrix(13.963635,0,0,-13.963635,68.16427,45.163637)" fill="#181717"/>
<use xlink:href="#font_1_15" transform="matrix(13.963635,0,0,-13.963635,70.9933,45.3312)" fill="#181717"/>
<use xlink:href="#font_1_25" transform="matrix(13.963635,0,0,-13.963635,79.46364,38.558835)" fill="#181717"/>
<use xlink:href="#font_1_12" transform="matrix(13.963635,0,0,-13.963635,82.87915,45.247419)" fill="#181717"/>
<use xlink:href="#font_1_1" transform="matrix(13.963635,0,0,-13.963635,85.56854,45.163637)" fill="#181717"/>
<use xlink:href="#font_1_25" transform="matrix(13.963635,0,0,-13.963635,90.8412,38.558835)" fill="#181717"/>
<use xlink:href="#font_1_19" transform="matrix(13.963635,0,0,-13.963635,94.07518,45.163637)" fill="#181717"/>
<use xlink:href="#font_1_1e" transform="matrix(13.963635,0,0,-13.963635,101.4843,45.3312)" fill="#181717"/>
<use xlink:href="#font_1_27" transform="matrix(13.963635,0,0,-13.963635,109.52177,45.3312)" fill="#181717"/>
<use xlink:href="#font_1_2b" transform="matrix(13.963635,0,0,-13.963635,115.25523,45.3312)" fill="#181717"/>
<use xlink:href="#font_1_27" transform="matrix(13.963635,0,0,-13.963635,120.15089,45.3312)" fill="#181717"/>
<use xlink:href="#font_1_23" transform="matrix(13.963635,0,0,-13.963635,126.87578,45.247419)" fill="#181717"/>
<use xlink:href="#font_1_2b" transform="matrix(13.963635,0,0,-13.963635,129.76067,45.3312)" fill="#181717"/>
<use xlink:href="#font_1_2f" transform="matrix(13.963635,0,0,-13.963635,134.19553,45.163637)" fill="#181717"/>
<use xlink:href="#font_1_2b" transform="matrix(13.963635,0,0,-13.963635,141.14383,45.3312)" fill="#181717"/>
<use xlink:href="#font_1_25" transform="matrix(13.963635,0,0,-13.963635,146.97504,38.558835)" fill="#181717"/>
<use xlink:href="#font_1_13" transform="matrix(13.963635,0,0,-13.963635,150.11125,47.118547)" fill="#181717"/>
<use xlink:href="#font_1_1" transform="matrix(13.963635,0,0,-13.963635,153.07993,45.163637)" fill="#181717"/>
<use xlink:href="#font_1_25" transform="matrix(13.963635,0,0,-13.963635,158.3526,38.558835)" fill="#181717"/>
<use xlink:href="#font_1_11" transform="matrix(13.963635,0,0,-13.963635,161.25147,45.340509)" fill="#181717"/>
<use xlink:href="#font_1_1e" transform="matrix(13.963635,0,0,-13.963635,168.00428,45.3312)" fill="#181717"/>
<use xlink:href="#font_1_1d" transform="matrix(13.963635,0,0,-13.963635,176.5165,45.163637)" fill="#181717"/>
<use xlink:href="#font_1_1d" transform="matrix(13.963635,0,0,-13.963635,184.26073,45.163637)" fill="#181717"/>
<use xlink:href="#font_1_15" transform="matrix(13.963635,0,0,-13.963635,191.73966,45.3312)" fill="#181717"/>
<use xlink:href="#font_1_11" transform="matrix(13.963635,0,0,-13.963635,199.48389,45.340509)" fill="#181717"/>
<use xlink:href="#font_1_2b" transform="matrix(13.963635,0,0,-13.963635,205.76194,45.3312)" fill="#181717"/>
<use xlink:href="#font_1_2e" transform="matrix(13.963635,0,0,-13.963635,210.19678,46.90909)" fill="#181717"/>
<use xlink:href="#font_1_2b" transform="matrix(13.963635,0,0,-13.963635,217.39643,45.3312)" fill="#181717"/>
<use xlink:href="#font_1_1a" transform="matrix(13.963635,0,0,-13.963635,222.83666,45.163637)" fill="#181717"/>
<use xlink:href="#font_1_1c" transform="matrix(13.963635,0,0,-13.963635,226.14046,45.163637)" fill="#181717"/>
<use xlink:href="#font_1_15" transform="matrix(13.963635,0,0,-13.963635,237.75263,45.3312)" fill="#181717"/>
<use xlink:href="#font_1_1e" transform="matrix(13.963635,0,0,-13.963635,245.49683,45.3312)" fill="#181717"/>
<use xlink:href="#font_1_2d" transform="matrix(13.963635,0,0,-13.963635,254.07888,45.3312)" fill="#181717"/>
<use xlink:href="#font_1_2b" transform="matrix(13.963635,0,0,-13.963635,261.0132,45.3312)" fill="#181717"/>
<use xlink:href="#font_1_25" transform="matrix(13.963635,0,0,-13.963635,266.84443,38.558835)" fill="#181717"/>
<use xlink:href="#font_1_12" transform="matrix(13.963635,0,0,-13.963635,270.25996,45.247419)" fill="#181717"/>
<use xlink:href="#font_1_1" transform="matrix(13.963635,0,0,-13.963635,272.9493,45.163637)" fill="#181717"/>
<use xlink:href="#font_1_18" transform="matrix(13.963635,0,0,-13.963635,277.49586,45.3312)" fill="#181717"/>
<use xlink:href="#font_1_23" transform="matrix(13.963635,0,0,-13.963635,285.75675,45.247419)" fill="#181717"/>
<use xlink:href="#font_1_30" transform="matrix(13.963635,0,0,-13.963635,288.97676,45.3312)" fill="#181717"/>
<use xlink:href="#font_1_13" transform="matrix(13.963635,0,0,-13.963635,297.098,47.118547)" fill="#181717"/>
<use xlink:href="#font_1_1" transform="matrix(13.963635,0,0,-13.963635,300.06666,45.163637)" fill="#181717"/>
<use xlink:href="#font_1_25" transform="matrix(13.963635,0,0,-13.963635,305.33934,38.558835)" fill="#181717"/>
<use xlink:href="#font_1_1c" transform="matrix(13.963635,0,0,-13.963635,308.50349,45.163637)" fill="#181717"/>
<use xlink:href="#font_1_1e" transform="matrix(13.963635,0,0,-13.963635,320.11567,45.3312)" fill="#181717"/>
<use xlink:href="#font_1_14" transform="matrix(13.963635,0,0,-13.963635,328.25083,45.3312)" fill="#181717"/>
<use xlink:href="#font_1_d" transform="matrix(13.963635,0,0,-13.963635,337.19593,45.3312)" fill="#181717"/>
<use xlink:href="#font_1_2d" transform="matrix(13.963635,0,0,-13.963635,345.69419,45.3312)" fill="#181717"/>
<use xlink:href="#font_1_27" transform="matrix(13.963635,0,0,-13.963635,352.89384,45.3312)" fill="#181717"/>
<use xlink:href="#font_1_2e" transform="matrix(13.963635,0,0,-13.963635,358.4318,46.90909)" fill="#181717"/>
<use xlink:href="#font_1_2b" transform="matrix(13.963635,0,0,-13.963635,365.63148,45.3312)" fill="#181717"/>
<use xlink:href="#font_1_1a" transform="matrix(13.963635,0,0,-13.963635,371.0717,45.163637)" fill="#181717"/>
<use xlink:href="#font_1_1c" transform="matrix(13.963635,0,0,-13.963635,374.37553,45.163637)" fill="#181717"/>
<use xlink:href="#font_1_15" transform="matrix(13.963635,0,0,-13.963635,385.98768,45.3312)" fill="#181717"/>
<use xlink:href="#font_1_1e" transform="matrix(13.963635,0,0,-13.963635,393.7319,45.3312)" fill="#181717"/>
<use xlink:href="#font_1_2d" transform="matrix(13.963635,0,0,-13.963635,402.31394,45.3312)" fill="#181717"/>
<use xlink:href="#font_1_2b" transform="matrix(13.963635,0,0,-13.963635,409.24827,45.3312)" fill="#181717"/>
<use xlink:href="#font_1_25" transform="matrix(13.963635,0,0,-13.963635,415.0795,38.558835)" fill="#181717"/>
<use xlink:href="#font_1_12" transform="matrix(13.963635,0,0,-13.963635,418.495,45.247419)" fill="#181717"/>
<use xlink:href="#font_1_1" transform="matrix(13.963635,0,0,-13.963635,421.1844,45.163637)" fill="#181717"/>
<use xlink:href="#font_1_16" transform="matrix(13.963635,0,0,-13.963635,425.8147,45.3312)" fill="#181717"/>
<use xlink:href="#font_1_13" transform="matrix(13.963635,0,0,-13.963635,433.71253,47.118547)" fill="#181717"/>
<use xlink:href="#font_1_1" transform="matrix(13.963635,0,0,-13.963635,436.68119,45.163637)" fill="#181717"/>
<symbol id="font_1_26">
<path d="M .0040000008 .32200004 C .0040000008 .34266673 .003333335 .36366669 .002000004 .38500003 C .001333336 .40633337 .000666668 .43400003 0 .46800003 L .065 .46800003 L .065 .381 L .067 .381 C .071666669 .39366666 .07833333 .40566669 .087 .41700004 C .09566667 .42900003 .106000009 .43966673 .118 .44900004 C .13066668 .45833338 .14500001 .46566669 .16100002 .47100003 C .17766667 .477 .19633335 .48000003 .21700002 .48000003 C .23566669 .48000003 .252 .47800002 .26600004 .47400005 L .25300003 .409 C .24433334 .41233338 .23166669 .41400004 .21500002 .41400004 C .18966668 .41400004 .168 .40900005 .15 .39900003 C .13200002 .38966669 .117000009 .37733338 .105000007 .36200003 C .092999998 .34733335 .084 .33133335 .07800001 .314 C .072666678 .29666669 .07000001 .28 .07000001 .264 L .07000001 0 L .0040000008 0 L .0040000008 .32200004 Z "/>
</symbol>
<symbol id="font_1_4">
<path d="M .07200001 0 L 0 0 L 0 .708 L .427 .708 L .427 .642 L .07200001 .642 L .07200001 .40100003 L .402 .40100003 L .402 .335 L .07200001 .335 L .07200001 0 Z "/>
</symbol>
<use xlink:href="#font_1_25" transform="matrix(13.963635,0,0,-13.963635,17.596354,57.540647)" fill="#181717"/>
<use xlink:href="#font_1_d" transform="matrix(13.963635,0,0,-13.963635,20.830332,64.31301)" fill="#181717"/>
<use xlink:href="#font_1_26" transform="matrix(13.963635,0,0,-13.963635,29.370491,64.14545)" fill="#181717"/>
<use xlink:href="#font_1_2d" transform="matrix(13.963635,0,0,-13.963635,33.958944,64.31301)" fill="#181717"/>
<use xlink:href="#font_1_2b" transform="matrix(13.963635,0,0,-13.963635,40.893285,64.31301)" fill="#181717"/>
<use xlink:href="#font_1_15" transform="matrix(13.963635,0,0,-13.963635,45.998388,64.31301)" fill="#181717"/>
<use xlink:href="#font_1_2e" transform="matrix(13.963635,0,0,-13.963635,53.07237,65.8909)" fill="#181717"/>
<use xlink:href="#font_1_2d" transform="matrix(13.963635,0,0,-13.963635,61.08191,64.31301)" fill="#181717"/>
<use xlink:href="#font_1_1a" transform="matrix(13.963635,0,0,-13.963635,68.82613,64.14545)" fill="#181717"/>
<use xlink:href="#font_1_14" transform="matrix(13.963635,0,0,-13.963635,71.75292,64.31301)" fill="#181717"/>
<use xlink:href="#font_1_25" transform="matrix(13.963635,0,0,-13.963635,81.089008,57.540647)" fill="#181717"/>
<use xlink:href="#font_1_12" transform="matrix(13.963635,0,0,-13.963635,84.50452,64.229228)" fill="#181717"/>
<use xlink:href="#font_1_1" transform="matrix(13.963635,0,0,-13.963635,87.19391,64.14545)" fill="#181717"/>
<use xlink:href="#font_1_4" transform="matrix(13.963635,0,0,-13.963635,92.41072,64.14545)" fill="#181717"/>
<use xlink:href="#font_1_c" transform="matrix(13.963635,0,0,-13.963635,99.4847,64.31301)" fill="#181717"/>
<use xlink:href="#font_1_1b" transform="matrix(13.963635,0,0,-13.963635,107.28479,64.14545)" fill="#181717"/>
<use xlink:href="#font_1_27" transform="matrix(13.963635,0,0,-13.963635,109.904369,64.31301)" fill="#181717"/>
<use xlink:href="#font_1_15" transform="matrix(13.963635,0,0,-13.963635,116.1126,64.31301)" fill="#181717"/>
<use xlink:href="#font_1_13" transform="matrix(13.963635,0,0,-13.963635,124.09422,66.10036)" fill="#181717"/>
<use xlink:href="#font_1_1" transform="matrix(13.963635,0,0,-13.963635,127.06289,64.14545)" fill="#181717"/>
<use xlink:href="#font_1_25" transform="matrix(13.963635,0,0,-13.963635,132.33556,57.540647)" fill="#181717"/>
<use xlink:href="#font_1_27" transform="matrix(13.963635,0,0,-13.963635,135.02495,64.31301)" fill="#181717"/>
<use xlink:href="#font_1_26" transform="matrix(13.963635,0,0,-13.963635,141.6102,64.14545)" fill="#181717"/>
<use xlink:href="#font_1_11" transform="matrix(13.963635,0,0,-13.963635,145.86353,64.32232)" fill="#181717"/>
<use xlink:href="#font_1_2e" transform="matrix(13.963635,0,0,-13.963635,151.94608,65.8909)" fill="#181717"/>
<use xlink:href="#font_1_2b" transform="matrix(13.963635,0,0,-13.963635,159.14575,64.31301)" fill="#181717"/>
<use xlink:href="#font_1_27" transform="matrix(13.963635,0,0,-13.963635,164.0414,64.31301)" fill="#181717"/>
<use xlink:href="#font_1_c" transform="matrix(13.963635,0,0,-13.963635,170.2496,64.31301)" fill="#181717"/>
<use xlink:href="#font_1_20" transform="matrix(13.963635,0,0,-13.963635,177.84026,68.16698)" fill="#181717"/>
<use xlink:href="#font_1_25" transform="matrix(13.963635,0,0,-13.963635,186.72949,57.540647)" fill="#181717"/>
<use xlink:href="#font_1_12" transform="matrix(13.963635,0,0,-13.963635,190.145,64.229228)" fill="#181717"/>
<use xlink:href="#font_1_1" transform="matrix(13.963635,0,0,-13.963635,192.83441,64.14545)" fill="#181717"/>
<use xlink:href="#font_1_7" transform="matrix(13.963635,0,0,-13.963635,198.05124,64.14545)" fill="#181717"/>
<use xlink:href="#font_1_1e" transform="matrix(13.963635,0,0,-13.963635,208.25308,64.31301)" fill="#181717"/>
<use xlink:href="#font_1_1d" transform="matrix(13.963635,0,0,-13.963635,216.7653,64.14545)" fill="#181717"/>
<use xlink:href="#font_1_15" transform="matrix(13.963635,0,0,-13.963635,224.24423,64.31301)" fill="#181717"/>
<use xlink:href="#font_1_13" transform="matrix(13.963635,0,0,-13.963635,232.22585,66.10036)" fill="#181717"/>
<use xlink:href="#font_1_1" transform="matrix(13.963635,0,0,-13.963635,235.19449,64.14545)" fill="#181717"/>
<symbol id="font_1_2c">
<path d="M .45000003 0 L 0 0 L 0 .083000008 L .282 .37 C .29266668 .38066665 .30333335 .392 .314 .404 C .32466669 .416 .33433334 .42866669 .34300003 .44200004 C .3516667 .45533336 .35866667 .46933333 .36400003 .48400004 C .36933337 .49866668 .372 .514 .372 .53000006 C .372 .54933336 .36833335 .56666669 .361 .582 C .3543333 .5973334 .3446667 .6103334 .33200003 .62100008 C .31933335 .6316667 .30466668 .63966676 .28800003 .64500007 C .27133335 .651 .25366668 .65400007 .23500002 .65400007 C .19900002 .65400007 .16833335 .64400008 .143 .624 C .117666687 .60400006 .10133334 .5770001 .094000007 .54300007 L .018 .551 C .027999999 .6036667 .052000006 .64500007 .09000001 .675 C .12866667 .705 .17533334 .72 .23000002 .72 C .25866667 .72 .28566668 .716 .31100003 .708 C .337 .70066669 .35966669 .6893334 .379 .674 C .39900003 .6586667 .41466669 .63933339 .42600004 .61600008 C .438 .59333339 .444 .56666669 .444 .536 C .444 .5086667 .43966667 .4836667 .43100003 .46100004 C .423 .43833337 .41233335 .41700004 .39900003 .397 C .3856667 .377 .37033335 .358 .35300002 .34 C .33633337 .32200004 .319 .30433337 .301 .287 L .078 .066 L .45000003 .066 L .45000003 0 Z "/>
</symbol>
<use xlink:href="#font_1_25" transform="matrix(13.963635,0,0,-13.963635,240.47136,57.540647)" fill="#c00000"/>
<use xlink:href="#font_1_20" transform="matrix(13.963635,0,0,-13.963635,243.70534,68.16698)" fill="#c00000"/>
<use xlink:href="#font_1_1e" transform="matrix(13.963635,0,0,-13.963635,251.86849,64.31301)" fill="#c00000"/>
<use xlink:href="#font_1_26" transform="matrix(13.963635,0,0,-13.963635,260.49244,64.14545)" fill="#c00000"/>
<use xlink:href="#font_1_2b" transform="matrix(13.963635,0,0,-13.963635,264.271,64.31301)" fill="#c00000"/>
<use xlink:href="#font_1_27" transform="matrix(13.963635,0,0,-13.963635,269.16664,64.31301)" fill="#c00000"/>
<use xlink:href="#font_1_25" transform="matrix(13.963635,0,0,-13.963635,276.10099,57.540647)" fill="#c00000"/>
<use xlink:href="#font_1_12" transform="matrix(13.963635,0,0,-13.963635,279.51649,64.229228)" fill="#c00000"/>
<use xlink:href="#font_1_1" transform="matrix(13.963635,0,0,-13.963635,282.20588,64.14545)" fill="#c00000"/>
<use xlink:href="#font_1_25" transform="matrix(13.963635,0,0,-13.963635,287.47856,57.540647)" fill="#c00000"/>
<use xlink:href="#font_1_18" transform="matrix(13.963635,0,0,-13.963635,290.3774,64.31301)" fill="#c00000"/>
<use xlink:href="#font_1_30" transform="matrix(13.963635,0,0,-13.963635,297.982,64.31301)" fill="#c00000"/>
<use xlink:href="#font_1_2c" transform="matrix(13.963635,0,0,-13.963635,305.86589,64.14545)" fill="#c00000"/>
<use xlink:href="#font_1_25" transform="matrix(13.963635,0,0,-13.963635,314.3362,57.540647)" fill="#c00000"/>
<use xlink:href="#font_1_13" transform="matrix(13.963635,0,0,-13.963635,317.47245,66.10036)" fill="#c00000"/>
<use xlink:href="#font_1_1" transform="matrix(13.963635,0,0,-13.963635,320.4411,64.14545)" fill="#c00000"/>
<use xlink:href="#font_1_25" transform="matrix(13.963635,0,0,-13.963635,325.71379,57.540647)" fill="#c00000"/>
<use xlink:href="#font_1_1c" transform="matrix(13.963635,0,0,-13.963635,328.87797,64.14545)" fill="#c00000"/>
<use xlink:href="#font_1_1e" transform="matrix(13.963635,0,0,-13.963635,340.4901,64.31301)" fill="#c00000"/>
<use xlink:href="#font_1_14" transform="matrix(13.963635,0,0,-13.963635,348.6253,64.31301)" fill="#c00000"/>
<use xlink:href="#font_1_d" transform="matrix(13.963635,0,0,-13.963635,357.5704,64.31301)" fill="#c00000"/>
<use xlink:href="#font_1_2d" transform="matrix(13.963635,0,0,-13.963635,366.06867,64.31301)" fill="#c00000"/>
<use xlink:href="#font_1_27" transform="matrix(13.963635,0,0,-13.963635,373.26835,64.31301)" fill="#c00000"/>
<use xlink:href="#font_1_2e" transform="matrix(13.963635,0,0,-13.963635,378.80635,65.8909)" fill="#c00000"/>
<use xlink:href="#font_1_14" transform="matrix(13.963635,0,0,-13.963635,386.36903,64.31301)" fill="#c00000"/>
<use xlink:href="#font_1_c" transform="matrix(13.963635,0,0,-13.963635,394.979,64.31301)" fill="#c00000"/>
<use xlink:href="#font_1_2b" transform="matrix(13.963635,0,0,-13.963635,401.75978,64.31301)" fill="#c00000"/>
<use xlink:href="#font_1_c" transform="matrix(13.963635,0,0,-13.963635,406.86488,64.31301)" fill="#c00000"/>
<use xlink:href="#font_1_25" transform="matrix(13.963635,0,0,-13.963635,414.8465,57.540647)" fill="#c00000"/>
<use xlink:href="#font_1_12" transform="matrix(13.963635,0,0,-13.963635,418.262,64.229228)" fill="#c00000"/>
<use xlink:href="#font_1_1" transform="matrix(13.963635,0,0,-13.963635,420.95143,64.14545)" fill="#c00000"/>
<use xlink:href="#font_1_25" transform="matrix(13.963635,0,0,-13.963635,17.596354,76.74065)" fill="#c00000"/>
<symbol id="font_1_e">
<path d="M 0 .72400006 L .057000005 .744 L .36 .019000002 L .30200003 0 L 0 .72400006 Z "/>
</symbol>
<use xlink:href="#font_1_e" transform="matrix(13.963635,0,0,-13.963635,19.894808,83.59679)" fill="#c00000"/>
<use xlink:href="#font_1_e" transform="matrix(13.963635,0,0,-13.963635,25.019808,83.59679)" fill="#c00000"/>
<use xlink:href="#font_1_2f" transform="matrix(13.963635,0,0,-13.963635,30.07499,83.34544)" fill="#c00000"/>
<use xlink:href="#font_1_30" transform="matrix(13.963635,0,0,-13.963635,37.35563,83.51301)" fill="#c00000"/>
<use xlink:href="#font_1_30" transform="matrix(13.963635,0,0,-13.963635,45.11103,83.51301)" fill="#c00000"/>
<use xlink:href="#font_1_e" transform="matrix(13.963635,0,0,-13.963635,52.394807,83.59679)" fill="#c00000"/>
<use xlink:href="#font_1_e" transform="matrix(13.963635,0,0,-13.963635,57.519807,83.59679)" fill="#c00000"/>
<symbol id="font_1_29">
<path d="M .07200001 .21900001 C .07200001 .19633334 .07566668 .17566668 .08300002 .157 C .09100002 .13833334 .10200002 .12200001 .11600001 .108 C .13000001 .09466667 .14666669 .08433334 .16600003 .07700001 C .18533336 .06966667 .2066667 .066 .23000004 .066 C .25333337 .066 .27466668 .06966667 .294 .07700001 C .31333337 .08433334 .33 .09466667 .344 .108 C .358 .12200001 .36866669 .13833334 .37600003 .157 C .38400004 .17566668 .388 .19633334 .388 .21900001 C .388 .24166668 .38400004 .26233337 .37600003 .28100003 C .36866669 .29966668 .358 .31566669 .344 .329 C .33 .34233333 .31333337 .3526667 .294 .36 C .27466668 .36800004 .25333337 .372 .23000004 .372 C .2066667 .372 .18533336 .36800004 .16600003 .36 C .14666669 .3526667 .13000001 .34233333 .11600001 .329 C .10200002 .31566669 .09100002 .29966668 .08300002 .28100003 C .07566668 .26233337 .07200001 .24166668 .07200001 .21900001 M .14400001 .416 L .14600002 .414 C .15733336 .42200003 .17233336 .428 .19100002 .432 C .21033335 .43600003 .22800003 .43800006 .24400003 .43800003 C .2746667 .43800006 .303 .43233336 .329 .421 C .35566668 .4103333 .37866668 .39533333 .398 .37600003 C .41733337 .35666669 .43233336 .33366669 .44300003 .307 C .45433335 .28033338 .46 .25100003 .46 .21900001 C .46 .18633335 .45433335 .15666668 .44300003 .13000001 C .4316667 .10333333 .4156667 .08033334 .395 .061000006 C .37433336 .041666669 .35000003 .02666667 .322 .016 C .294 .0053333339 .26333336 0 .23000004 0 C .1966667 0 .16600003 .0053333339 .13800001 .016 C .110000018 .02666667 .08566668 .041666669 .06500001 .061000006 C .04433334 .08033334 .028333342 .10333333 .017000009 .13000001 C .005666672 .15666668 .0000000037252905 .18633335 .0000000037252905 .21900001 C .0000000037252905 .25833334 .005666672 .29266668 .017000009 .322 C .029000009 .35133336 .043666677 .38033334 .061000009 .409 L .252 .72 L .337 .72 L .14400001 .416 Z "/>
</symbol>
<use xlink:href="#font_1_2f" transform="matrix(13.963635,0,0,-13.963635,62.575,83.34544)" fill="#c00000"/>
<use xlink:href="#font_1_29" transform="matrix(13.963635,0,0,-13.963635,69.99528,83.51301)" fill="#c00000"/>
<use xlink:href="#font_1_30" transform="matrix(13.963635,0,0,-13.963635,77.611049,83.51301)" fill="#c00000"/>
<use xlink:href="#font_1_e" transform="matrix(13.963635,0,0,-13.963635,84.894809,83.59679)" fill="#c00000"/>
<use xlink:href="#font_1_e" transform="matrix(13.963635,0,0,-13.963635,90.019809,83.59679)" fill="#c00000"/>
<use xlink:href="#font_1_2f" transform="matrix(13.963635,0,0,-13.963635,95.07499,83.34544)" fill="#c00000"/>
<use xlink:href="#font_1_4" transform="matrix(13.963635,0,0,-13.963635,103.16552,83.34544)" fill="#c00000"/>
<use xlink:href="#font_1_4" transform="matrix(13.963635,0,0,-13.963635,110.92092,83.34544)" fill="#c00000"/>
<use xlink:href="#font_1_e" transform="matrix(13.963635,0,0,-13.963635,117.39481,83.59679)" fill="#c00000"/>
<use xlink:href="#font_1_e" transform="matrix(13.963635,0,0,-13.963635,122.51981,83.59679)" fill="#c00000"/>
<use xlink:href="#font_1_2f" transform="matrix(13.963635,0,0,-13.963635,127.575,83.34544)" fill="#c00000"/>
<use xlink:href="#font_1_30" transform="matrix(13.963635,0,0,-13.963635,134.85564,83.51301)" fill="#c00000"/>
<use xlink:href="#font_1_30" transform="matrix(13.963635,0,0,-13.963635,142.61106,83.51301)" fill="#c00000"/>
<symbol id="font_1_24">
<path d="M .067 0 L 0 0 L .067 .23499999 L .148 .23499999 L .067 0 Z "/>
</symbol>
<symbol id="font_1_10">
<path d="M .261 .41400004 C .23833335 .41400004 .21766667 .40433336 .199 .38500003 C .181 .36566667 .172 .33833335 .172 .303 L .172 .125 C .172 .10166667 .16900002 .082 .163 .066 C .157 .049999998 .149 .03733333 .139 .027999998 C .12900001 .017999998 .117333348 .010999997 .104 .0069999995 C .09133334 .002333333 .07800001 0 .064 0 L 0 0 L 0 .060000004 L .056 .060000004 C .067999999 .060000004 .07733334 .06266666 .08400001 .067999999 C .09133333 .07266667 .09633333 .079 .09900001 .087 C .10233334 .095 .10433334 .104 .105000007 .114 C .105666678 .124000009 .106000009 .13366668 .106000009 .143 L .106000009 .315 C .106000009 .339 .10933334 .359 .11600001 .375 C .123333338 .39166669 .13166668 .4046667 .141 .41400004 C .15100001 .42400003 .161 .431 .171 .435 C .181 .43966667 .18900001 .44233338 .19500001 .44300003 L .19500001 .445 C .18900001 .4456667 .181 .44800005 .171 .45200003 C .161 .45666669 .15100001 .46366669 .141 .473 C .13166668 .48300005 .123333338 .49600006 .11600001 .512 C .10933334 .5286667 .106000009 .549 .106000009 .573 L .106000009 .74500009 C .106000009 .75433346 .105666678 .7640001 .105000007 .77400007 C .10433334 .7840001 .10233334 .79300007 .09900001 .80100008 C .09633333 .809 .09133333 .81533339 .08400001 .82000008 C .07733334 .8253334 .067999999 .82800009 .056 .82800009 L 0 .82800009 L 0 .8880001 L .064 .8880001 C .07800001 .8880001 .09133334 .88566669 .104 .88100007 C .117333348 .87700006 .12900001 .87000009 .139 .8600001 C .149 .85066679 .157 .83800008 .163 .822 C .16900002 .80600008 .172 .7863334 .172 .7630001 L .172 .58500006 C .172 .5496667 .181 .5223333 .199 .503 C .21766667 .4836667 .23833335 .47400008 .261 .47400005 L .261 .41400004 Z "/>
</symbol>
<use xlink:href="#font_1_24" transform="matrix(13.963635,0,0,-13.963635,150.60697,76.74065)"/>
<use xlink:href="#font_1_10" transform="matrix(13.963635,0,0,-13.963635,153.26842,85.52377)"/>
<path transform="matrix(1,0,0,-1,0,188)" d="M 1.018187 67.57393 C 1.018187 69.39582 2.495119 70.87276 4.317008 70.87276 L 458.7376 70.87276 C 460.5595 70.87276 462.0364 69.39582 462.0364 67.57393 L 462.0364 4.571583 C 462.0364 2.749695 460.5595 1.272759 458.7376 1.272759 L 4.317008 1.272759 C 2.495119 1.272759 1.018187 2.749695 1.018187 4.571583 Z " fill="#f2f2f2" fill-opacity=".7961" fill-rule="evenodd"/>
<path transform="matrix(.00007874016,0,0,.00007874016,1.018187,117.12724)" stroke-width="12700" stroke-linecap="butt" stroke-miterlimit="8" stroke-linejoin="miter" fill="none" stroke="#d9d9d9" d="M 0 41895.07 C 0 18757.06 18757.04 0 41895.03 0 L 5813036 0 C 5836174 0 5854931 18757.06 5854931 41895.07 L 5854931 842024.9 C 5854931 865162.9 5836174 883920 5813036 883920 L 41895.03 883920 C 18757.04 883920 0 865162.9 0 842024.9 Z "/>
<symbol id="font_1_1f">
<path d="M .24400002 0 L .17200002 0 L .17200002 .61800006 L .045 .50600007 L 0 .56 L .18 .708 L .24400002 .708 L .24400002 0 Z "/>
</symbol>
<symbol id="font_1_28">
<path d="M .42000006 .642 L .135 0 L .054 0 L .34500004 .642 L 0 .642 L 0 .708 L .42000006 .708 L .42000006 .642 Z "/>
</symbol>
<symbol id="font_1_6">
<path d="M .34900005 .132 L .588 .708 L .698 .708 L .698 0 L .62600007 0 L .62600007 .61200007 L .624 .61200007 L .36800004 0 L .33000005 0 L .074 .61200007 L .07200001 .61200007 L .07200001 0 L 0 0 L 0 .708 L .110000018 .708 L .34900005 .132 Z "/>
</symbol>
<symbol id="font_1_2a">
<path d="M .058000003 0 L 0 .019000002 L .30300004 .744 L .36 .72400006 L .058000003 0 Z "/>
</symbol>
<symbol id="font_1_a">
<path d="M .30900003 0 L .23700002 0 L .23700002 .642 L 0 .642 L 0 .708 L .546 .708 L .546 .642 L .30900003 .642 L .30900003 0 Z "/>
</symbol>
<symbol id="font_1_2">
<path d="M .63100007 .13000001 C .619 .11200001 .60400006 .095 .586 .079 C .5686667 .063 .5486667 .049 .526 .037 C .50333335 .025666669 .47866667 .016666668 .452 .010000001 C .426 .0033333337 .39833335 0 .36900003 0 C .31633336 0 .26733337 .009333334 .22200002 .028 C .17733336 .046666668 .13833335 .072333339 .10500002 .105000007 C .07233334 .13833334 .04666667 .17766668 .028000009 .22300002 C .009333339 .26833336 .0000000037252905 .318 .0000000037252905 .372 C .0000000037252905 .42600004 .009333339 .47566668 .028000009 .521 C .04666667 .56633338 .07233334 .6053334 .10500002 .638 C .13833335 .6713333 .17733336 .69733336 .22200002 .716 C .26733337 .73466667 .31633336 .744 .36900003 .744 C .41300003 .744 .45700003 .7353334 .50100007 .71800008 C .545 .7006667 .5826667 .672 .6140001 .632 L .55100008 .58500006 C .54366669 .5963334 .5336667 .60766676 .521 .619 C .5083334 .63033339 .49366669 .64033338 .47700004 .64900007 C .46100006 .65766677 .4436667 .6646667 .425 .67 C .40633337 .6753333 .3876667 .67800006 .36900003 .67800006 C .32366667 .67800006 .28300003 .6696667 .24700003 .65300008 C .21100003 .6363334 .18033336 .614 .15500002 .586 C .13033335 .558 .11133335 .52533337 .09800002 .48800005 C .08466668 .45133338 .07800001 .41266669 .07800001 .372 C .07800001 .33133338 .08466668 .29233337 .09800002 .25500003 C .11133335 .21833337 .13033335 .186 .15500002 .158 C .18033336 .13000001 .21100003 .10766667 .24700003 .091000009 C .28300003 .07433333 .32366667 .066 .36900003 .066 C .3876667 .066 .40600003 .06766667 .42400003 .071 C .44266669 .07433334 .46066667 .080000009 .47800002 .088 C .49600006 .09599999 .5126667 .10666666 .52800008 .120000008 C .5440001 .134 .5586667 .15133335 .572 .17200002 L .63100007 .13000001 Z "/>
</symbol>
<symbol id="font_1_8">
<path d="M .07200001 .395 L .18800001 .395 C .22000002 .395 .24700003 .39833335 .269 .40500004 C .2916667 .41166673 .3096667 .42033337 .323 .43100003 C .33633337 .44233335 .346 .45533336 .352 .47000004 C .358 .48533336 .36099998 .5016667 .361 .51900008 C .36099998 .5356667 .358 .55133339 .352 .56600007 C .346 .5813334 .33633337 .5946667 .323 .606 C .3096667 .61733338 .2916667 .626 .269 .632 C .24700003 .6386667 .22000002 .642 .18800001 .642 L .07200001 .642 L .07200001 .395 M 0 .708 L .20600002 .708 C .27800004 .708 .3346667 .6923334 .37600006 .661 C .418 .6296667 .439 .5823334 .439 .51900008 C .439 .4556667 .418 .40800003 .37600006 .37600003 C .3346667 .3446667 .27800004 .32900004 .20600002 .32900004 L .07200001 .32900004 L .07200001 0 L 0 0 L 0 .708 Z "/>
</symbol>
<use xlink:href="#font_1_1f" transform="matrix(13.963635,0,0,-13.963635,17.652209,135.92726)" fill="#181717"/>
<use xlink:href="#font_1_2c" transform="matrix(13.963635,0,0,-13.963635,24.819743,135.92726)" fill="#181717"/>
<use xlink:href="#font_1_28" transform="matrix(13.963635,0,0,-13.963635,32.853025,135.92726)" fill="#181717"/>
<use xlink:href="#font_1_23" transform="matrix(13.963635,0,0,-13.963635,41.235395,136.01105)" fill="#181717"/>
<use xlink:href="#font_1_30" transform="matrix(13.963635,0,0,-13.963635,44.660676,136.09482)" fill="#181717"/>
<use xlink:href="#font_1_23" transform="matrix(13.963635,0,0,-13.963635,53.266466,136.01105)" fill="#181717"/>
<use xlink:href="#font_1_30" transform="matrix(13.963635,0,0,-13.963635,56.691747,136.09482)" fill="#181717"/>
<use xlink:href="#font_1_23" transform="matrix(13.963635,0,0,-13.963635,65.29754,136.01105)" fill="#181717"/>
<use xlink:href="#font_1_1f" transform="matrix(13.963635,0,0,-13.963635,69.64442,135.92726)" fill="#181717"/>
<use xlink:href="#font_1_12" transform="matrix(13.963635,0,0,-13.963635,77.328609,136.01105)" fill="#181717"/>
<use xlink:href="#font_1_18" transform="matrix(13.963635,0,0,-13.963635,80.89352,136.09482)" fill="#181717"/>
<use xlink:href="#font_1_30" transform="matrix(13.963635,0,0,-13.963635,88.70338,136.09482)" fill="#181717"/>
<use xlink:href="#font_1_2c" transform="matrix(13.963635,0,0,-13.963635,96.79252,135.92726)" fill="#181717"/>
<use xlink:href="#font_1_1" transform="matrix(13.963635,0,0,-13.963635,104.07176,135.92726)" fill="#181717"/>
<use xlink:href="#font_1_6" transform="matrix(13.963635,0,0,-13.963635,109.493839,135.92726)" fill="#181717"/>
<use xlink:href="#font_1_1e" transform="matrix(13.963635,0,0,-13.963635,121.52072,136.09482)" fill="#181717"/>
<use xlink:href="#font_1_14" transform="matrix(13.963635,0,0,-13.963635,129.86119,136.09482)" fill="#181717"/>
<use xlink:href="#font_1_d" transform="matrix(13.963635,0,0,-13.963635,139.01155,136.09482)" fill="#181717"/>
<use xlink:href="#font_1_2d" transform="matrix(13.963635,0,0,-13.963635,147.7151,136.09482)" fill="#181717"/>
<use xlink:href="#font_1_27" transform="matrix(13.963635,0,0,-13.963635,155.12001,136.09482)" fill="#181717"/>
<use xlink:href="#font_1_2a" transform="matrix(13.963635,0,0,-13.963635,160.93305,136.1786)" fill="#181717"/>
<use xlink:href="#font_1_a" transform="matrix(13.963635,0,0,-13.963635,166.38306,135.92726)" fill="#181717"/>
<use xlink:href="#font_1_2" transform="matrix(13.963635,0,0,-13.963635,175.05869,136.1786)" fill="#181717"/>
<use xlink:href="#font_1_8" transform="matrix(13.963635,0,0,-13.963635,185.8009,135.92726)" fill="#181717"/>
<symbol id="font_1_b">
<path d="M .51800009 .282 C .51800009 .25266669 .5143334 .22133334 .507 .18800001 C .50033339 .15533334 .4873334 .12500002 .46800006 .097 C .4486667 .069 .42200003 .045666666 .388 .027000003 C .35466669 .009000001 .31166668 0 .259 0 C .20566666 0 .16233334 .009000001 .12900001 .027000003 C .09566667 .045666666 .06933333 .069 .049999998 .097 C .030666665 .12500002 .01733333 .15533334 .009999998 .18800001 C .0033333328 .22133334 0 .25266669 0 .282 L 0 .726 L .072 .726 L .072 .29000003 C .072 .256 .075333338 .22666669 .082 .20200002 C .08866668 .17800002 .097333338 .15766667 .107999999 .141 C .11933333 .124333348 .13166668 .111 .14500001 .101 C .159 .09166667 .17266667 .08433334 .186 .079 C .2 .07366667 .21333333 .07 .226 .068 C .23866667 .06666667 .24966669 .066 .259 .066 C .26766668 .066 .27833335 .06666667 .291 .068 C .30433334 .07 .31766669 .07366667 .33100004 .079 C .34500004 .08433334 .35866667 .09166667 .37200005 .101 C .386 .111 .39833335 .124333348 .40900005 .141 C .4203334 .15766667 .42933337 .17800002 .43600006 .20200002 C .44266669 .22666669 .446 .256 .44600005 .29000003 L .44600005 .726 L .51800009 .726 L .51800009 .282 Z "/>
</symbol>
<symbol id="font_1_5">
<path d="M .07200001 0 L 0 0 L 0 .708 L .07200001 .708 L .07200001 0 Z "/>
</symbol>
<symbol id="font_1_3">
<path d="M .072000008 .066 L .21200001 .066 C .266 .066 .31266669 .074 .35200004 .09 C .39200006 .10666666 .42500005 .12833333 .451 .155 C .4776667 .18233335 .49733339 .21300002 .51 .24700001 C .52266666 .28166668 .529 .31733335 .529 .354 C .529 .3906667 .52266666 .426 .51 .46 C .49733339 .4946667 .4776667 .52533337 .451 .55200007 C .42500005 .57933339 .39200006 .6010001 .35200004 .61700007 C .31266669 .6336667 .266 .642 .21200001 .642 L .072000008 .642 L .072000008 .066 M 0 .708 L .23500002 .708 C .279 .708 .32300005 .70066669 .367 .68600007 C .41166673 .6713334 .4516667 .649 .48700003 .619 C .523 .58966669 .552 .5526667 .574 .508 C .596 .46400003 .607 .41266669 .607 .354 C .607 .29466669 .596 .24300002 .574 .19900002 C .552 .15500002 .523 .118 .48700003 .08800001 C .4516667 .058666674 .41166673 .03666667 .367 .022000002 C .32300005 .007333334 .279 0 .23500002 0 L 0 0 L 0 .708 Z "/>
</symbol>
<use xlink:href="#font_1_b" transform="matrix(13.963635,0,0,-13.963635,25.522936,155.37862)" fill="#181717"/>
<use xlink:href="#font_1_1d" transform="matrix(13.963635,0,0,-13.963635,35.110368,155.12728)" fill="#181717"/>
<use xlink:href="#font_1_1a" transform="matrix(13.963635,0,0,-13.963635,43.133878,155.12728)" fill="#181717"/>
<use xlink:href="#font_1_2b" transform="matrix(13.963635,0,0,-13.963635,45.893095,155.29483)" fill="#181717"/>
<use xlink:href="#font_1_1" transform="matrix(13.963635,0,0,-13.963635,50.52343,155.12728)" fill="#181717"/>
<use xlink:href="#font_1_5" transform="matrix(13.963635,0,0,-13.963635,55.935735,155.12728)" fill="#181717"/>
<use xlink:href="#font_1_3" transform="matrix(13.963635,0,0,-13.963635,59.74222,155.12728)" fill="#181717"/>
<use xlink:href="#font_1_12" transform="matrix(13.963635,0,0,-13.963635,70.30711,155.21106)" fill="#181717"/>
<use xlink:href="#font_1_1" transform="matrix(13.963635,0,0,-13.963635,73.192,155.12728)" fill="#181717"/>
<use xlink:href="#font_1_30" transform="matrix(13.963635,0,0,-13.963635,77.79441,155.29483)" fill="#181717"/>
<symbol id="font_1_9">
<path d="M .07200001 .395 L .2 .395 C .23200001 .395 .25900004 .39833335 .28100003 .40500004 C .30366669 .41166673 .3216667 .42033337 .33500005 .43100003 C .34833337 .44233335 .35800005 .45533336 .36400003 .47000004 C .37000004 .48533336 .37300004 .5016667 .37300004 .51900008 C .37300004 .5356667 .37000004 .55133339 .36400003 .56600007 C .35800005 .5813334 .34833337 .5946667 .33500005 .606 C .3216667 .61733338 .30366669 .626 .28100003 .632 C .25900004 .6386667 .23200001 .642 .2 .642 L .07200001 .642 L .07200001 .395 M .07200001 0 L 0 0 L 0 .708 L .21800001 .708 C .29000003 .708 .3466667 .6923334 .388 .661 C .43000005 .6296667 .45100007 .5823334 .45100004 .51900008 C .45100007 .46966673 .43533335 .428 .40399999 .39400003 C .37333337 .36066667 .32866673 .34133337 .27000005 .33600004 L .47400005 0 L .38600005 0 L .19200002 .32900004 L .07200001 .32900004 L .07200001 0 Z "/>
</symbol>
<symbol id="font_1_21">
<path d="M .198 .86200007 C .17666668 .82800009 .15766667 .7950001 .141 .7630001 C .125 .731 .11133333 .6983333 .10000001 .665 C .08866668 .63233336 .080000009 .59833338 .074 .563 C .06866667 .52766677 .066 .4893334 .066 .448 C .066 .40666668 .06866667 .36866669 .074 .33400003 C .080000009 .29933334 .08833334 .266 .09900001 .23400001 C .109666679 .20200002 .123 .17033334 .139 .13900002 C .155 .10766667 .17333333 .07466667 .194 .040000008 L .141 0 C .09633333 .06266668 .061666669 .13266668 .037000006 .21000001 C .012333334 .28733338 0 .3666667 0 .448 C 0 .52533337 .012000001 .603 .036000004 .68100008 C .060666667 .75900009 .097 .8306667 .14500001 .8960001 L .198 .86200007 Z "/>
</symbol>
<use xlink:href="#font_1_9" transform="matrix(13.963635,0,0,-13.963635,33.840497,174.10906)" fill="#181717"/>
<use xlink:href="#font_1_15" transform="matrix(13.963635,0,0,-13.963635,41.61964,174.27661)" fill="#181717"/>
<use xlink:href="#font_1_27" transform="matrix(13.963635,0,0,-13.963635,49.35689,174.27661)" fill="#181717"/>
<use xlink:href="#font_1_20" transform="matrix(13.963635,0,0,-13.963635,56.102727,178.13059)" fill="#181717"/>
<use xlink:href="#font_1_1e" transform="matrix(13.963635,0,0,-13.963635,64.46834,174.27661)" fill="#181717"/>
<use xlink:href="#font_1_1d" transform="matrix(13.963635,0,0,-13.963635,73.183048,174.10906)" fill="#181717"/>
<use xlink:href="#font_1_27" transform="matrix(13.963635,0,0,-13.963635,80.65498,174.27661)" fill="#181717"/>
<use xlink:href="#font_1_15" transform="matrix(13.963635,0,0,-13.963635,87.0657,174.27661)" fill="#181717"/>
<use xlink:href="#font_1_12" transform="matrix(13.963635,0,0,-13.963635,95.52906,174.19284)" fill="#181717"/>
<use xlink:href="#font_1_1" transform="matrix(13.963635,0,0,-13.963635,98.42093,174.10906)" fill="#181717"/>
<use xlink:href="#font_1_1" transform="matrix(13.963635,0,0,-13.963635,102.499698,174.10906)" fill="#181717"/>
<use xlink:href="#font_1_1" transform="matrix(13.963635,0,0,-13.963635,106.578479,174.10906)" fill="#181717"/>
<use xlink:href="#font_1_21" transform="matrix(13.963635,0,0,-13.963635,111.41129,176.34323)" fill="#181717"/>
<use xlink:href="#font_1_30" transform="matrix(13.963635,0,0,-13.963635,115.005619,174.27661)" fill="#c00000"/>
<use xlink:href="#font_1_30" transform="matrix(13.963635,0,0,-13.963635,122.95512,174.27661)" fill="#c00000"/>
<use xlink:href="#font_1_29" transform="matrix(13.963635,0,0,-13.963635,131.04425,174.27661)" fill="#c00000"/>
<use xlink:href="#font_1_30" transform="matrix(13.963635,0,0,-13.963635,138.85411,174.27661)" fill="#c00000"/>
<use xlink:href="#font_1_17" transform="matrix(13.963635,0,0,-13.963635,146.46849,174.10906)" fill="#c00000"/>
<use xlink:href="#font_1_17" transform="matrix(13.963635,0,0,-13.963635,150.78745,174.10906)" fill="#c00000"/>
<use xlink:href="#font_1_30" transform="matrix(13.963635,0,0,-13.963635,155.44152,174.27661)" fill="#c00000"/>
<use xlink:href="#font_1_30" transform="matrix(13.963635,0,0,-13.963635,163.39102,174.27661)" fill="#c00000"/>
<symbol id="font_1_22">
<path d="M 0 .03400001 C .021333335 .06800001 .040000004 .10100001 .056 .13300002 C .07266667 .165 .086666669 .19733334 .098000008 .23000002 C .10933334 .26333336 .11766667 .2976667 .12300001 .333 C .12900001 .36833335 .132 .40666668 .132 .448 C .132 .4893334 .12900001 .5273334 .12300001 .56200006 C .11766667 .5966667 .10966667 .63000008 .09900001 .66200008 C .08833334 .69400009 .075 .7256667 .059 .757 C .043 .7883334 .024666667 .8213334 .0039999999 .85600009 L .057000005 .8960001 C .10166667 .83333346 .13633333 .7633334 .16100002 .68600007 C .18566668 .6086667 .19800002 .52933338 .19800002 .448 C .19800002 .37066666 .18566668 .293 .16100002 .21500002 C .13700001 .13700001 .101 .06533334 .053000004 0 L 0 .03400001 Z "/>
</symbol>
<use xlink:href="#font_1_22" transform="matrix(13.963635,0,0,-13.963635,170.9367,176.34323)" fill="#181717"/>
<path transform="matrix(1,0,0,-1,0,188)" d="M 9.090943 64.32725 L 74.76362 64.32725 L 74.76362 47.96363 L 9.090943 47.96363 Z " fill="#f2f2f2"/>
<path transform="matrix(.00007874016,0,0,.00007874016,9.090943,123.67275)" stroke-width="12700" stroke-linecap="butt" stroke-miterlimit="8" stroke-linejoin="miter" fill="none" stroke="#c00000" d="M 0 0 L 834043 0 L 834043 207818 L 0 207818 Z "/>
</g>
</svg>
